<?xml version="1.0" encoding="UTF-8" standalone="no"?>
<!DOCTYPE svg PUBLIC "-//W3C//DTD SVG 1.1//EN"
 "http://www.w3.org/Graphics/SVG/1.1/DTD/svg11.dtd">
<!-- Generated by graphviz version 2.38.0 (20140413.2041)
 -->
<!-- Title: G Pages: 1 -->
<svg width="909pt" height="2248pt"
 viewBox="0.00 0.00 908.72 2247.51" xmlns="http://www.w3.org/2000/svg" xmlns:xlink="http://www.w3.org/1999/xlink">
<g id="graph0" class="graph" transform="scale(1 1) rotate(0) translate(4 2243.51)">
<title>G</title>
<polygon fill="white" stroke="none" points="-4,4 -4,-2243.51 904.721,-2243.51 904.721,4 -4,4"/>
<g id="clust1" class="cluster"><title>cluster_Global</title>
<path fill="none" stroke="gray" d="M333.319,-438.508C333.319,-438.508 880.721,-438.508 880.721,-438.508 886.721,-438.508 892.721,-444.508 892.721,-450.508 892.721,-450.508 892.721,-2219.51 892.721,-2219.51 892.721,-2225.51 886.721,-2231.51 880.721,-2231.51 880.721,-2231.51 333.319,-2231.51 333.319,-2231.51 327.319,-2231.51 321.319,-2225.51 321.319,-2219.51 321.319,-2219.51 321.319,-450.508 321.319,-450.508 321.319,-444.508 327.319,-438.508 333.319,-438.508"/>
<text text-anchor="middle" x="607.02" y="-2218.71" font-family="Times,serif" font-size="11.00" fill="gray">Global</text>
</g>
<g id="clust2" class="cluster"><title>cluster_\Contentful</title>
<path fill="none" stroke="gray" d="M341.319,-446.508C341.319,-446.508 872.721,-446.508 872.721,-446.508 878.721,-446.508 884.721,-452.508 884.721,-458.508 884.721,-458.508 884.721,-2192.51 884.721,-2192.51 884.721,-2198.51 878.721,-2204.51 872.721,-2204.51 872.721,-2204.51 341.319,-2204.51 341.319,-2204.51 335.319,-2204.51 329.319,-2198.51 329.319,-2192.51 329.319,-2192.51 329.319,-458.508 329.319,-458.508 329.319,-452.508 335.319,-446.508 341.319,-446.508"/>
<text text-anchor="middle" x="607.02" y="-2191.71" font-family="Times,serif" font-size="11.00" fill="gray">Contentful</text>
</g>
<g id="clust3" class="cluster"><title>cluster_\Contentful\Delivery</title>
<path fill="none" stroke="gray" d="M349.319,-662.508C349.319,-662.508 864.721,-662.508 864.721,-662.508 870.721,-662.508 876.721,-668.508 876.721,-674.508 876.721,-674.508 876.721,-2013.51 876.721,-2013.51 876.721,-2019.51 870.721,-2025.51 864.721,-2025.51 864.721,-2025.51 349.319,-2025.51 349.319,-2025.51 343.319,-2025.51 337.319,-2019.51 337.319,-2013.51 337.319,-2013.51 337.319,-674.508 337.319,-674.508 337.319,-668.508 343.319,-662.508 349.319,-662.508"/>
<text text-anchor="middle" x="607.02" y="-2012.71" font-family="Times,serif" font-size="11.00" fill="gray">Delivery</text>
</g>
<g id="clust4" class="cluster"><title>cluster_\Contentful\Delivery\Synchronization</title>
<path fill="none" stroke="gray" d="M357.319,-1711.51C357.319,-1711.51 815.716,-1711.51 815.716,-1711.51 821.716,-1711.51 827.716,-1717.51 827.716,-1723.51 827.716,-1723.51 827.716,-1986.51 827.716,-1986.51 827.716,-1992.51 821.716,-1998.51 815.716,-1998.51 815.716,-1998.51 357.319,-1998.51 357.319,-1998.51 351.319,-1998.51 345.319,-1992.51 345.319,-1986.51 345.319,-1986.51 345.319,-1723.51 345.319,-1723.51 345.319,-1717.51 351.319,-1711.51 357.319,-1711.51"/>
<text text-anchor="middle" x="586.517" y="-1985.71" font-family="Times,serif" font-size="11.00" fill="gray">Synchronization</text>
</g>
<g id="clust5" class="cluster"><title>cluster_\Contentful\Delivery\Console</title>
<path fill="none" stroke="gray" d="M687.498,-1551.51C687.498,-1551.51 856.721,-1551.51 856.721,-1551.51 862.721,-1551.51 868.721,-1557.51 868.721,-1563.51 868.721,-1563.51 868.721,-1691.51 868.721,-1691.51 868.721,-1697.51 862.721,-1703.51 856.721,-1703.51 856.721,-1703.51 687.498,-1703.51 687.498,-1703.51 681.498,-1703.51 675.498,-1697.51 675.498,-1691.51 675.498,-1691.51 675.498,-1563.51 675.498,-1563.51 675.498,-1557.51 681.498,-1551.51 687.498,-1551.51"/>
<text text-anchor="middle" x="772.109" y="-1690.71" font-family="Times,serif" font-size="11.00" fill="gray">Console</text>
</g>
<g id="clust6" class="cluster"><title>cluster_\Contentful\Delivery\Console\Command</title>
<path fill="none" stroke="gray" d="M695.498,-1605.51C695.498,-1605.51 848.721,-1605.51 848.721,-1605.51 854.721,-1605.51 860.721,-1611.51 860.721,-1617.51 860.721,-1617.51 860.721,-1664.51 860.721,-1664.51 860.721,-1670.51 854.721,-1676.51 848.721,-1676.51 848.721,-1676.51 695.498,-1676.51 695.498,-1676.51 689.498,-1676.51 683.498,-1670.51 683.498,-1664.51 683.498,-1664.51 683.498,-1617.51 683.498,-1617.51 683.498,-1611.51 689.498,-1605.51 695.498,-1605.51"/>
<text text-anchor="middle" x="772.109" y="-1663.71" font-family="Times,serif" font-size="11.00" fill="gray">Command</text>
</g>
<g id="clust7" class="cluster"><title>cluster_\Contentful\Delivery\Tool</title>
<path fill="none" stroke="gray" d="M721.902,-1472.51C721.902,-1472.51 822.317,-1472.51 822.317,-1472.51 828.317,-1472.51 834.317,-1478.51 834.317,-1484.51 834.317,-1484.51 834.317,-1531.51 834.317,-1531.51 834.317,-1537.51 828.317,-1543.51 822.317,-1543.51 822.317,-1543.51 721.902,-1543.51 721.902,-1543.51 715.902,-1543.51 709.902,-1537.51 709.902,-1531.51 709.902,-1531.51 709.902,-1484.51 709.902,-1484.51 709.902,-1478.51 715.902,-1472.51 721.902,-1472.51"/>
<text text-anchor="middle" x="772.109" y="-1530.71" font-family="Times,serif" font-size="11.00" fill="gray">Tool</text>
</g>
<!-- \\Contentful\\Delivery\\Synchronization\\Query -->
<g id="node1" class="node"><title>\\Contentful\\Delivery\\Synchronization\\Query</title>
<polygon fill="none" stroke="black" points="799.109,-1971.51 745.109,-1971.51 745.109,-1935.51 799.109,-1935.51 799.109,-1971.51"/>
<text text-anchor="middle" x="772.109" y="-1950.21" font-family="Courier,monospace" font-size="11.00">Query</text>
</g>
<!-- \\Contentful\\Delivery\\Synchronization\\Result -->
<g id="node2" class="node"><title>\\Contentful\\Delivery\\Synchronization\\Result</title>
<polygon fill="none" stroke="black" points="799.717,-1917.51 744.501,-1917.51 744.501,-1881.51 799.717,-1881.51 799.717,-1917.51"/>
<text text-anchor="middle" x="772.109" y="-1896.21" font-family="Courier,monospace" font-size="11.00">Result</text>
</g>
<!-- \\Contentful\\Delivery\\Synchronization\\DeletedResource -->
<g id="node3" class="node"><title>\\Contentful\\Delivery\\Synchronization\\DeletedResource</title>
<polygon fill="none" stroke="black" points="468.343,-1755.51 353.311,-1755.51 353.311,-1719.51 468.343,-1719.51 468.343,-1755.51"/>
<text text-anchor="start" x="377.822" y="-1739.71" font-family="Courier,monospace" font-size="11.00">«abstract»</text>
<text text-anchor="start" x="361.319" y="-1728.71" font-family="Courier,monospace" font-size="11.00">DeletedResource</text>
</g>
<!-- \\JsonSerializable -->
<g id="node34" class="node"><title>\\JsonSerializable</title>
<ellipse fill="none" stroke="black" cx="70.0291" cy="-621.508" rx="70.0582" ry="18"/>
<text text-anchor="middle" x="70.0291" y="-617.308" font-family="Times,serif" font-size="14.00" fill="gray">\JsonSerializable</text>
</g>
<!-- \\Contentful\\Delivery\\Synchronization\\DeletedResource&#45;&gt;\\JsonSerializable -->
<g id="edge13" class="edge"><title>\\Contentful\\Delivery\\Synchronization\\DeletedResource&#45;&gt;\\JsonSerializable</title>
<path fill="none" stroke="black" stroke-dasharray="1,5" d="M352.95,-1748.25C308.52,-1753.09 248.402,-1751.22 212.058,-1715.51 133.449,-1638.26 82.1742,-815.26 72.6411,-650.227"/>
<polygon fill="none" stroke="black" points="76.1164,-649.693 72.0503,-639.91 69.1279,-650.093 76.1164,-649.693"/>
</g>
<!-- \\Contentful\\Delivery\\Synchronization\\Manager -->
<g id="node4" class="node"><title>\\Contentful\\Delivery\\Synchronization\\Manager</title>
<polygon fill="none" stroke="black" points="803.317,-1863.51 740.901,-1863.51 740.901,-1827.51 803.317,-1827.51 803.317,-1863.51"/>
<text text-anchor="middle" x="772.109" y="-1842.21" font-family="Courier,monospace" font-size="11.00">Manager</text>
</g>
<!-- \\Contentful\\Delivery\\Synchronization\\DeletedEntry -->
<g id="node5" class="node"><title>\\Contentful\\Delivery\\Synchronization\\DeletedEntry</title>
<polygon fill="none" stroke="black" points="819.822,-1809.51 724.396,-1809.51 724.396,-1773.51 819.822,-1773.51 819.822,-1809.51"/>
<text text-anchor="middle" x="772.109" y="-1788.21" font-family="Courier,monospace" font-size="11.00">DeletedEntry</text>
</g>
<!-- \\Contentful\\Delivery\\Synchronization\\DeletedEntry&#45;&gt;\\Contentful\\Delivery\\Synchronization\\DeletedResource -->
<g id="edge17" class="edge"><title>\\Contentful\\Delivery\\Synchronization\\DeletedEntry&#45;&gt;\\Contentful\\Delivery\\Synchronization\\DeletedResource</title>
<path fill="none" stroke="black" d="M724.296,-1781.14C692.152,-1774.29 648.441,-1765.51 609.596,-1759.51 566.188,-1752.81 517.117,-1747.33 478.714,-1743.52"/>
<polygon fill="none" stroke="black" points="478.979,-1740.03 468.686,-1742.54 478.298,-1747 478.979,-1740.03"/>
</g>
<!-- \\Contentful\\Delivery\\Synchronization\\DeletedAsset -->
<g id="node6" class="node"><title>\\Contentful\\Delivery\\Synchronization\\DeletedAsset</title>
<polygon fill="none" stroke="black" points="819.822,-1755.51 724.396,-1755.51 724.396,-1719.51 819.822,-1719.51 819.822,-1755.51"/>
<text text-anchor="middle" x="772.109" y="-1734.21" font-family="Courier,monospace" font-size="11.00">DeletedAsset</text>
</g>
<!-- \\Contentful\\Delivery\\Synchronization\\DeletedAsset&#45;&gt;\\Contentful\\Delivery\\Synchronization\\DeletedResource -->
<g id="edge25" class="edge"><title>\\Contentful\\Delivery\\Synchronization\\DeletedAsset&#45;&gt;\\Contentful\\Delivery\\Synchronization\\DeletedResource</title>
<path fill="none" stroke="black" d="M724.139,-1737.51C661.502,-1737.51 550.243,-1737.51 478.818,-1737.51"/>
<polygon fill="none" stroke="black" points="478.58,-1734.01 468.58,-1737.51 478.58,-1741.01 478.58,-1734.01"/>
</g>
<!-- \\Contentful\\Delivery\\Console\\Command\\GenerateClassesCommand -->
<g id="node7" class="node"><title>\\Contentful\\Delivery\\Console\\Command\\GenerateClassesCommand</title>
<polygon fill="none" stroke="black" points="852.833,-1649.51 691.386,-1649.51 691.386,-1613.51 852.833,-1613.51 852.833,-1649.51"/>
<text text-anchor="middle" x="772.109" y="-1628.21" font-family="Courier,monospace" font-size="11.00">GenerateClassesCommand</text>
</g>
<!-- \\Symfony\\Component\\Console\\Command\\Command -->
<g id="node40" class="node"><title>\\Symfony\\Component\\Console\\Command\\Command</title>
<ellipse fill="none" stroke="black" cx="410.827" cy="-412.508" rx="198.538" ry="18"/>
<text text-anchor="middle" x="410.827" y="-408.308" font-family="Times,serif" font-size="14.00" fill="gray">\Symfony\Component\Console\Command\Command</text>
</g>
<!-- \\Contentful\\Delivery\\Console\\Command\\GenerateClassesCommand&#45;&gt;\\Symfony\\Component\\Console\\Command\\Command -->
<g id="edge19" class="edge"><title>\\Contentful\\Delivery\\Console\\Command\\GenerateClassesCommand&#45;&gt;\\Symfony\\Component\\Console\\Command\\Command</title>
<path fill="none" stroke="black" d="M691.222,-1622.02C685.299,-1618.79 679.923,-1614.69 675.498,-1609.51 537.91,-1448.43 686.825,-855.769 609.596,-658.508 572.752,-564.4 486.352,-478.211 440.92,-437.374"/>
<polygon fill="none" stroke="black" points="443,-434.541 433.199,-430.517 438.352,-439.774 443,-434.541"/>
</g>
<!-- \\Contentful\\Delivery\\Console\\Application -->
<g id="node8" class="node"><title>\\Contentful\\Delivery\\Console\\Application</title>
<polygon fill="none" stroke="black" points="816.222,-1595.51 727.997,-1595.51 727.997,-1559.51 816.222,-1559.51 816.222,-1595.51"/>
<text text-anchor="middle" x="772.109" y="-1574.21" font-family="Courier,monospace" font-size="11.00">Application</text>
</g>
<!-- \\Symfony\\Component\\Console\\Application -->
<g id="node39" class="node"><title>\\Symfony\\Component\\Console\\Application</title>
<ellipse fill="none" stroke="black" cx="410.827" cy="-358.508" rx="164.242" ry="18"/>
<text text-anchor="middle" x="410.827" y="-354.308" font-family="Times,serif" font-size="14.00" fill="gray">\Symfony\Component\Console\Application</text>
</g>
<!-- \\Contentful\\Delivery\\Console\\Application&#45;&gt;\\Symfony\\Component\\Console\\Application -->
<g id="edge11" class="edge"><title>\\Contentful\\Delivery\\Console\\Application&#45;&gt;\\Symfony\\Component\\Console\\Application</title>
<path fill="none" stroke="black" d="M727.726,-1574.69C708.692,-1571.08 687.898,-1563.43 675.498,-1547.51 516.575,-1343.46 785.112,-575.474 609.596,-385.508 601.944,-377.226 593.042,-370.613 583.331,-365.379"/>
<polygon fill="none" stroke="black" points="584.724,-362.164 574.199,-360.951 581.67,-368.463 584.724,-362.164"/>
</g>
<!-- \\Contentful\\Delivery\\Tool\\ClassGenerator -->
<g id="node9" class="node"><title>\\Contentful\\Delivery\\Tool\\ClassGenerator</title>
<polygon fill="none" stroke="black" points="826.525,-1516.51 717.693,-1516.51 717.693,-1480.51 826.525,-1480.51 826.525,-1516.51"/>
<text text-anchor="middle" x="772.109" y="-1495.21" font-family="Courier,monospace" font-size="11.00">ClassGenerator</text>
</g>
<!-- \\Contentful\\Delivery\\Query -->
<g id="node10" class="node"><title>\\Contentful\\Delivery\\Query</title>
<polygon fill="none" stroke="black" points="799.109,-1354.51 745.109,-1354.51 745.109,-1318.51 799.109,-1318.51 799.109,-1354.51"/>
<text text-anchor="middle" x="772.109" y="-1333.21" font-family="Courier,monospace" font-size="11.00">Query</text>
</g>
<!-- \\Contentful\\Query -->
<g id="node28" class="node"><title>\\Contentful\\Query</title>
<polygon fill="none" stroke="black" points="437.827,-2123.51 383.827,-2123.51 383.827,-2087.51 437.827,-2087.51 437.827,-2123.51"/>
<text text-anchor="middle" x="410.827" y="-2102.21" font-family="Courier,monospace" font-size="11.00">Query</text>
</g>
<!-- \\Contentful\\Delivery\\Query&#45;&gt;\\Contentful\\Query -->
<g id="edge1" class="edge"><title>\\Contentful\\Delivery\\Query&#45;&gt;\\Contentful\\Query</title>
<path fill="none" stroke="black" d="M744.891,-1336.27C722.825,-1337.61 692.262,-1343.35 675.498,-1363.51 573.471,-1486.19 719.927,-1963.24 609.596,-2078.51 568.335,-2121.62 493.103,-2118.95 448.268,-2112.58"/>
<polygon fill="none" stroke="black" points="448.523,-2109.08 438.104,-2111 447.447,-2116 448.523,-2109.08"/>
</g>
<!-- \\Contentful\\Delivery\\ResourceBuilder -->
<g id="node11" class="node"><title>\\Contentful\\Delivery\\ResourceBuilder</title>
<polygon fill="none" stroke="black" points="829.625,-1408.51 714.593,-1408.51 714.593,-1372.51 829.625,-1372.51 829.625,-1408.51"/>
<text text-anchor="middle" x="772.109" y="-1387.21" font-family="Courier,monospace" font-size="11.00">ResourceBuilder</text>
</g>
<!-- \\Contentful\\Delivery\\ContentTypeField -->
<g id="node12" class="node"><title>\\Contentful\\Delivery\\ContentTypeField</title>
<polygon fill="none" stroke="black" points="832.727,-1084.51 711.492,-1084.51 711.492,-1048.51 832.727,-1048.51 832.727,-1084.51"/>
<text text-anchor="middle" x="772.109" y="-1063.21" font-family="Courier,monospace" font-size="11.00">ContentTypeField</text>
</g>
<!-- \\Contentful\\Delivery\\ContentTypeField&#45;&gt;\\JsonSerializable -->
<g id="edge2" class="edge"><title>\\Contentful\\Delivery\\ContentTypeField&#45;&gt;\\JsonSerializable</title>
<path fill="none" stroke="black" stroke-dasharray="1,5" d="M711.183,-1061.11C697.608,-1057.05 684.546,-1050.38 675.498,-1039.51 574.406,-918.063 721.163,-443.405 609.596,-331.508 547.25,-268.976 498.781,-327.875 411.827,-312.508"/>
</g>
<!-- \\Contentful\\Delivery\\SpaceMismatchException -->
<g id="node13" class="node"><title>\\Contentful\\Delivery\\SpaceMismatchException</title>
<polygon fill="none" stroke="black" points="852.833,-1030.51 691.386,-1030.51 691.386,-994.508 852.833,-994.508 852.833,-1030.51"/>
<text text-anchor="middle" x="772.109" y="-1009.21" font-family="Courier,monospace" font-size="11.00">SpaceMismatchException</text>
</g>
<!-- \\RuntimeException -->
<g id="node35" class="node"><title>\\RuntimeException</title>
<ellipse fill="none" stroke="black" cx="410.827" cy="-266.508" rx="78.7539" ry="18"/>
<text text-anchor="middle" x="410.827" y="-262.308" font-family="Times,serif" font-size="14.00" fill="gray">\RuntimeException</text>
</g>
<!-- \\Contentful\\Delivery\\SpaceMismatchException&#45;&gt;\\RuntimeException -->
<g id="edge3" class="edge"><title>\\Contentful\\Delivery\\SpaceMismatchException&#45;&gt;\\RuntimeException</title>
<path fill="none" stroke="black" d="M691.214,-998.591C685.293,-995.105 679.919,-990.804 675.498,-985.508 577.212,-867.772 714.474,-410.41 609.596,-298.508 579.932,-266.857 532.233,-258.451 491.112,-258.152"/>
<polygon fill="none" stroke="black" points="491.058,-254.652 481.088,-258.235 491.116,-261.652 491.058,-254.652"/>
</g>
<!-- \\Contentful\\Delivery\\ContentType -->
<g id="node14" class="node"><title>\\Contentful\\Delivery\\ContentType</title>
<polygon fill="none" stroke="black" points="816.222,-922.508 727.997,-922.508 727.997,-886.508 816.222,-886.508 816.222,-922.508"/>
<text text-anchor="middle" x="772.109" y="-901.208" font-family="Courier,monospace" font-size="11.00">ContentType</text>
</g>
<!-- \\Contentful\\Delivery\\ContentType&#45;&gt;\\JsonSerializable -->
<g id="edge8" class="edge"><title>\\Contentful\\Delivery\\ContentType&#45;&gt;\\JsonSerializable</title>
<path fill="none" stroke="black" stroke-dasharray="1,5" d="M727.783,-902.673C708.999,-899.557 688.395,-892.578 675.498,-877.508 516.571,-691.8 784.523,-502.228 609.596,-331.508 546.402,-269.833 498.781,-327.875 411.827,-312.508"/>
</g>
<!-- \\Contentful\\Delivery\\DynamicEntry -->
<g id="node15" class="node"><title>\\Contentful\\Delivery\\DynamicEntry</title>
<polygon fill="none" stroke="black" points="819.822,-1300.51 724.396,-1300.51 724.396,-1264.51 819.822,-1264.51 819.822,-1300.51"/>
<text text-anchor="middle" x="772.109" y="-1279.21" font-family="Courier,monospace" font-size="11.00">DynamicEntry</text>
</g>
<!-- \\Contentful\\Delivery\\EntryInterface -->
<g id="node26" class="node"><title>\\Contentful\\Delivery\\EntryInterface</title>
<polygon fill="none" stroke="black" points="465.243,-1151.51 356.411,-1151.51 356.411,-1115.51 465.243,-1115.51 465.243,-1151.51"/>
<text text-anchor="middle" x="410.827" y="-1130.21" font-family="Courier,monospace" font-size="11.00">EntryInterface</text>
</g>
<!-- \\Contentful\\Delivery\\DynamicEntry&#45;&gt;\\Contentful\\Delivery\\EntryInterface -->
<g id="edge10" class="edge"><title>\\Contentful\\Delivery\\DynamicEntry&#45;&gt;\\Contentful\\Delivery\\EntryInterface</title>
<path fill="none" stroke="black" stroke-dasharray="1,5" d="M724.436,-1270.92C708.717,-1266.59 691.189,-1261.31 675.498,-1255.51 596.004,-1226.1 507.262,-1182.73 455.665,-1156.4"/>
<polygon fill="none" stroke="black" points="456.97,-1153.14 446.474,-1151.69 453.777,-1159.37 456.97,-1153.14"/>
</g>
<!-- \\Contentful\\LocalizedResource -->
<g id="node33" class="node"><title>\\Contentful\\LocalizedResource</title>
<polygon fill="none" stroke="black" points="475.045,-2069.51 346.609,-2069.51 346.609,-2033.51 475.045,-2033.51 475.045,-2069.51"/>
<text text-anchor="start" x="377.822" y="-2053.71" font-family="Courier,monospace" font-size="11.00">«abstract»</text>
<text text-anchor="start" x="354.718" y="-2042.71" font-family="Courier,monospace" font-size="11.00">LocalizedResource</text>
</g>
<!-- \\Contentful\\Delivery\\DynamicEntry&#45;&gt;\\Contentful\\LocalizedResource -->
<g id="edge9" class="edge"><title>\\Contentful\\Delivery\\DynamicEntry&#45;&gt;\\Contentful\\LocalizedResource</title>
<path fill="none" stroke="black" d="M724.154,-1284.8C706.311,-1288.16 687.43,-1295.2 675.498,-1309.51 576.411,-1428.3 710.591,-1885.33 609.596,-2002.51 579.236,-2037.73 527.905,-2049.7 485.147,-2053.01"/>
<polygon fill="none" stroke="black" points="484.804,-2049.52 475.044,-2053.65 485.244,-2056.51 484.804,-2049.52"/>
</g>
<!-- \\Contentful\\Delivery\\InstanceCache -->
<g id="node16" class="node"><title>\\Contentful\\Delivery\\InstanceCache</title>
<polygon fill="none" stroke="black" points="822.923,-1138.51 721.295,-1138.51 721.295,-1102.51 822.923,-1102.51 822.923,-1138.51"/>
<text text-anchor="middle" x="772.109" y="-1117.21" font-family="Courier,monospace" font-size="11.00">InstanceCache</text>
</g>
<!-- \\Contentful\\Delivery\\File -->
<g id="node17" class="node"><title>\\Contentful\\Delivery\\File</title>
<polygon fill="none" stroke="black" points="437.827,-949.508 383.827,-949.508 383.827,-913.508 437.827,-913.508 437.827,-949.508"/>
<text text-anchor="middle" x="410.827" y="-928.208" font-family="Courier,monospace" font-size="11.00">File</text>
</g>
<!-- \\Contentful\\Delivery\\File&#45;&gt;\\JsonSerializable -->
<g id="edge12" class="edge"><title>\\Contentful\\Delivery\\File&#45;&gt;\\JsonSerializable</title>
<path fill="none" stroke="black" stroke-dasharray="1,5" d="M390.147,-913.501C332.335,-860.603 162.972,-705.636 97.3914,-645.629"/>
<polygon fill="none" stroke="black" points="99.663,-642.964 89.9226,-638.795 94.9376,-648.128 99.663,-642.964"/>
</g>
<!-- \\Contentful\\Delivery\\SystemProperties -->
<g id="node18" class="node"><title>\\Contentful\\Delivery\\SystemProperties</title>
<polygon fill="none" stroke="black" points="832.727,-814.508 711.492,-814.508 711.492,-778.508 832.727,-778.508 832.727,-814.508"/>
<text text-anchor="middle" x="772.109" y="-793.208" font-family="Courier,monospace" font-size="11.00">SystemProperties</text>
</g>
<!-- \\Contentful\\Delivery\\SystemProperties&#45;&gt;\\JsonSerializable -->
<g id="edge15" class="edge"><title>\\Contentful\\Delivery\\SystemProperties&#45;&gt;\\JsonSerializable</title>
<path fill="none" stroke="black" stroke-dasharray="1,5" d="M409.827,-312.508C322.873,-297.14 284.588,-281.142 212.058,-331.508 120.959,-394.768 86.3998,-533.785 75.4276,-593.427"/>
<polygon fill="none" stroke="black" points="71.9801,-592.824 73.6993,-603.278 78.8748,-594.033 71.9801,-592.824"/>
<path fill="none" stroke="black" stroke-dasharray="1,5" d="M711.107,-790.6C697.7,-786.54 684.736,-779.989 675.498,-769.508 545.329,-621.828 752.473,-466.93 609.596,-331.508 545.507,-270.763 498.781,-327.875 411.827,-312.508"/>
</g>
<!-- \\Contentful\\Delivery\\Client -->
<g id="node19" class="node"><title>\\Contentful\\Delivery\\Client</title>
<polygon fill="none" stroke="black" points="799.717,-1462.51 744.501,-1462.51 744.501,-1426.51 799.717,-1426.51 799.717,-1462.51"/>
<text text-anchor="middle" x="772.109" y="-1441.21" font-family="Courier,monospace" font-size="11.00">Client</text>
</g>
<!-- \\Contentful\\Client -->
<g id="node32" class="node"><title>\\Contentful\\Client</title>
<polygon fill="none" stroke="black" points="451.838,-2177.51 369.816,-2177.51 369.816,-2141.51 451.838,-2141.51 451.838,-2177.51"/>
<text text-anchor="start" x="377.822" y="-2161.71" font-family="Courier,monospace" font-size="11.00">«abstract»</text>
<text text-anchor="start" x="391.024" y="-2150.71" font-family="Courier,monospace" font-size="11.00">Client</text>
</g>
<!-- \\Contentful\\Delivery\\Client&#45;&gt;\\Contentful\\Client -->
<g id="edge16" class="edge"><title>\\Contentful\\Delivery\\Client&#45;&gt;\\Contentful\\Client</title>
<path fill="none" stroke="black" d="M744.133,-1443.45C722.211,-1444.17 692.268,-1449.07 675.498,-1468.51 578.63,-1580.77 712.501,-2025.75 609.596,-2132.51 572.225,-2171.28 507.352,-2172.93 462.136,-2168.24"/>
<polygon fill="none" stroke="black" points="462.289,-2164.73 451.949,-2167.04 461.472,-2171.68 462.289,-2164.73"/>
</g>
<!-- \\Contentful\\Delivery\\ImageOptions -->
<g id="node20" class="node"><title>\\Contentful\\Delivery\\ImageOptions</title>
<polygon fill="none" stroke="black" points="819.822,-976.508 724.396,-976.508 724.396,-940.508 819.822,-940.508 819.822,-976.508"/>
<text text-anchor="middle" x="772.109" y="-955.208" font-family="Courier,monospace" font-size="11.00">ImageOptions</text>
</g>
<!-- \\Contentful\\Delivery\\ImageFile -->
<g id="node21" class="node"><title>\\Contentful\\Delivery\\ImageFile</title>
<polygon fill="none" stroke="black" points="810.02,-1192.51 734.199,-1192.51 734.199,-1156.51 810.02,-1156.51 810.02,-1192.51"/>
<text text-anchor="middle" x="772.109" y="-1171.21" font-family="Courier,monospace" font-size="11.00">ImageFile</text>
</g>
<!-- \\Contentful\\Delivery\\ImageFile&#45;&gt;\\Contentful\\Delivery\\File -->
<g id="edge18" class="edge"><title>\\Contentful\\Delivery\\ImageFile&#45;&gt;\\Contentful\\Delivery\\File</title>
<path fill="none" stroke="black" d="M734.365,-1167.85C716.005,-1163.61 693.849,-1157.08 675.498,-1147.51 623.884,-1120.59 495.867,-1007.46 439.37,-956.54"/>
<polygon fill="none" stroke="black" points="441.655,-953.888 431.888,-949.782 436.964,-959.082 441.655,-953.888"/>
</g>
<!-- \\Contentful\\Delivery\\Link -->
<g id="node22" class="node"><title>\\Contentful\\Delivery\\Link</title>
<polygon fill="none" stroke="black" points="799.109,-868.508 745.109,-868.508 745.109,-832.508 799.109,-832.508 799.109,-868.508"/>
<text text-anchor="middle" x="772.109" y="-847.208" font-family="Courier,monospace" font-size="11.00">Link</text>
</g>
<!-- \\Contentful\\Delivery\\Locale -->
<g id="node23" class="node"><title>\\Contentful\\Delivery\\Locale</title>
<polygon fill="none" stroke="black" points="799.717,-760.508 744.501,-760.508 744.501,-724.508 799.717,-724.508 799.717,-760.508"/>
<text text-anchor="middle" x="772.109" y="-739.208" font-family="Courier,monospace" font-size="11.00">Locale</text>
</g>
<!-- \\Contentful\\Delivery\\Locale&#45;&gt;\\JsonSerializable -->
<g id="edge20" class="edge"><title>\\Contentful\\Delivery\\Locale&#45;&gt;\\JsonSerializable</title>
<path fill="none" stroke="black" stroke-dasharray="1,5" d="M744.247,-742.488C722.396,-740.934 692.491,-735.017 675.498,-715.508 535.222,-554.46 763.738,-387.338 609.596,-239.508 545.866,-178.387 500.12,-221.741 411.827,-220.508"/>
</g>
<!-- \\Contentful\\Delivery\\Space -->
<g id="node24" class="node"><title>\\Contentful\\Delivery\\Space</title>
<polygon fill="none" stroke="black" points="799.109,-706.508 745.109,-706.508 745.109,-670.508 799.109,-670.508 799.109,-706.508"/>
<text text-anchor="middle" x="772.109" y="-685.208" font-family="Courier,monospace" font-size="11.00">Space</text>
</g>
<!-- \\Contentful\\Delivery\\Space&#45;&gt;\\JsonSerializable -->
<g id="edge21" class="edge"><title>\\Contentful\\Delivery\\Space&#45;&gt;\\JsonSerializable</title>
<path fill="none" stroke="black" stroke-dasharray="1,5" d="M744.887,-689.948C723.127,-689.615 693.008,-685.346 675.498,-666.508 544.763,-525.859 749.215,-371.341 609.596,-239.508 545.392,-178.885 500.12,-221.741 411.827,-220.508"/>
</g>
<!-- \\Contentful\\Delivery\\Asset -->
<g id="node25" class="node"><title>\\Contentful\\Delivery\\Asset</title>
<polygon fill="none" stroke="black" points="799.109,-1246.51 745.109,-1246.51 745.109,-1210.51 799.109,-1210.51 799.109,-1246.51"/>
<text text-anchor="middle" x="772.109" y="-1225.21" font-family="Courier,monospace" font-size="11.00">Asset</text>
</g>
<!-- \\Contentful\\Delivery\\Asset&#45;&gt;\\Contentful\\LocalizedResource -->
<g id="edge23" class="edge"><title>\\Contentful\\Delivery\\Asset&#45;&gt;\\Contentful\\LocalizedResource</title>
<path fill="none" stroke="black" d="M744.872,-1228.26C722.793,-1229.58 692.222,-1235.32 675.498,-1255.51 569.193,-1383.84 717.962,-1875.91 609.596,-2002.51 579.357,-2037.83 528.022,-2049.8 485.232,-2053.08"/>
<polygon fill="none" stroke="black" points="484.884,-2049.6 475.121,-2053.71 485.319,-2056.58 484.884,-2049.6"/>
</g>
<!-- \\Contentful\\Delivery\\Asset&#45;&gt;\\JsonSerializable -->
<g id="edge24" class="edge"><title>\\Contentful\\Delivery\\Asset&#45;&gt;\\JsonSerializable</title>
<path fill="none" stroke="black" stroke-dasharray="1,5" d="M744.81,-1228.81C722.691,-1227.51 692.097,-1221.8 675.498,-1201.51 552.742,-1051.43 745.305,-469.982 609.596,-331.508 547.79,-268.442 498.781,-327.875 411.827,-312.508"/>
</g>
<!-- \\Contentful\\Delivery\\EntryInterface&#45;&gt;\\JsonSerializable -->
<g id="edge26" class="edge"><title>\\Contentful\\Delivery\\EntryInterface&#45;&gt;\\JsonSerializable</title>
<path fill="none" stroke="black" d="M382.326,-1115.34C340.536,-1086.51 260.767,-1026.54 212.058,-958.508 138.914,-856.348 94.5205,-710.491 78.1824,-649.744"/>
<polygon fill="none" stroke="black" points="81.4805,-648.525 75.5428,-639.75 74.7126,-650.313 81.4805,-648.525"/>
</g>
<!-- \\Contentful\\ResourceArray -->
<g id="node27" class="node"><title>\\Contentful\\ResourceArray</title>
<polygon fill="none" stroke="black" points="822.923,-598.508 721.295,-598.508 721.295,-562.508 822.923,-562.508 822.923,-598.508"/>
<text text-anchor="middle" x="772.109" y="-577.208" font-family="Courier,monospace" font-size="11.00">ResourceArray</text>
</g>
<!-- \\Contentful\\ResourceArray&#45;&gt;\\JsonSerializable -->
<g id="edge7" class="edge"><title>\\Contentful\\ResourceArray&#45;&gt;\\JsonSerializable</title>
<path fill="none" stroke="black" stroke-dasharray="1,5" d="M720.982,-576.692C704.435,-572.991 687.27,-566.114 675.498,-553.508 578.171,-449.291 715.869,-334.585 609.596,-239.508 543.787,-180.632 500.12,-221.741 411.827,-220.508"/>
<path fill="none" stroke="black" stroke-dasharray="1,5" d="M409.827,-220.508C321.534,-219.274 282.008,-185.616 212.058,-239.508 97.0011,-328.152 75.7872,-520.555 71.8955,-593.078"/>
<polygon fill="none" stroke="black" points="68.39,-593.118 71.4228,-603.269 75.3825,-593.442 68.39,-593.118"/>
</g>
<!-- \\Countable -->
<g id="node36" class="node"><title>\\Countable</title>
<ellipse fill="none" stroke="black" cx="410.827" cy="-174.508" rx="48.8273" ry="18"/>
<text text-anchor="middle" x="410.827" y="-170.308" font-family="Times,serif" font-size="14.00" fill="gray">\Countable</text>
</g>
<!-- \\Contentful\\ResourceArray&#45;&gt;\\Countable -->
<g id="edge4" class="edge"><title>\\Contentful\\ResourceArray&#45;&gt;\\Countable</title>
<path fill="none" stroke="black" stroke-dasharray="1,5" d="M720.847,-576.817C704.287,-573.128 687.149,-566.226 675.498,-553.508 569.46,-437.756 722.1,-315.985 609.596,-206.508 572.479,-170.389 511.632,-165.461 467.218,-167.659"/>
<polygon fill="none" stroke="black" points="466.917,-164.171 457.157,-168.291 467.356,-171.157 466.917,-164.171"/>
</g>
<!-- \\ArrayAccess -->
<g id="node37" class="node"><title>\\ArrayAccess</title>
<ellipse fill="none" stroke="black" cx="410.827" cy="-120.508" rx="58.465" ry="18"/>
<text text-anchor="middle" x="410.827" y="-116.308" font-family="Times,serif" font-size="14.00" fill="gray">\ArrayAccess</text>
</g>
<!-- \\Contentful\\ResourceArray&#45;&gt;\\ArrayAccess -->
<g id="edge5" class="edge"><title>\\Contentful\\ResourceArray&#45;&gt;\\ArrayAccess</title>
<path fill="none" stroke="black" stroke-dasharray="1,5" d="M721.153,-577.099C704.42,-573.455 687.092,-566.51 675.498,-553.508 553.829,-417.071 740.48,-275.13 609.596,-147.508 574.148,-112.943 516.669,-108.55 472.789,-111.416"/>
<polygon fill="none" stroke="black" points="472.492,-107.929 462.8,-112.207 473.045,-114.907 472.492,-107.929"/>
</g>
<!-- \\IteratorAggregate -->
<g id="node38" class="node"><title>\\IteratorAggregate</title>
<ellipse fill="none" stroke="black" cx="410.827" cy="-66.5077" rx="75.3276" ry="18"/>
<text text-anchor="middle" x="410.827" y="-62.3077" font-family="Times,serif" font-size="14.00" fill="gray">\IteratorAggregate</text>
</g>
<!-- \\Contentful\\ResourceArray&#45;&gt;\\IteratorAggregate -->
<g id="edge6" class="edge"><title>\\Contentful\\ResourceArray&#45;&gt;\\IteratorAggregate</title>
<path fill="none" stroke="black" stroke-dasharray="1,5" d="M721.02,-577.217C704.273,-573.585 686.971,-566.617 675.498,-553.508 539.479,-398.091 756.118,-239.064 609.596,-93.5077 577.686,-61.8078 527.293,-55.3121 485.363,-56.6115"/>
<polygon fill="none" stroke="black" points="485.007,-53.1242 475.179,-57.0822 485.33,-60.1167 485.007,-53.1242"/>
</g>
<!-- \\Contentful\\Location -->
<g id="node29" class="node"><title>\\Contentful\\Location</title>
<polygon fill="none" stroke="black" points="806.418,-490.508 737.8,-490.508 737.8,-454.508 806.418,-454.508 806.418,-490.508"/>
<text text-anchor="middle" x="772.109" y="-469.208" font-family="Courier,monospace" font-size="11.00">Location</text>
</g>
<!-- \\Contentful\\Location&#45;&gt;\\JsonSerializable -->
<g id="edge14" class="edge"><title>\\Contentful\\Location&#45;&gt;\\JsonSerializable</title>
<path fill="none" stroke="black" stroke-dasharray="1,5" d="M771.008,-454.267C769.517,-385.356 753.929,-139.717 609.596,-39.5077 537.03,10.8747 281.492,15.1107 212.058,-39.5077 122.491,-109.963 82.9049,-486.536 73.3792,-593.284"/>
<polygon fill="none" stroke="black" points="69.8875,-593.037 72.5034,-603.304 76.8609,-593.647 69.8875,-593.037"/>
</g>
<!-- \\Contentful\\BearerToken -->
<g id="node30" class="node"><title>\\Contentful\\BearerToken</title>
<polygon fill="none" stroke="black" points="816.222,-544.508 727.997,-544.508 727.997,-508.508 816.222,-508.508 816.222,-544.508"/>
<text text-anchor="middle" x="772.109" y="-523.208" font-family="Courier,monospace" font-size="11.00">BearerToken</text>
</g>
<!-- \\Contentful\\ResourceNotFoundException -->
<g id="node31" class="node"><title>\\Contentful\\ResourceNotFoundException</title>
<polygon fill="none" stroke="black" points="862.636,-652.508 681.582,-652.508 681.582,-616.508 862.636,-616.508 862.636,-652.508"/>
<text text-anchor="middle" x="772.109" y="-631.208" font-family="Courier,monospace" font-size="11.00">ResourceNotFoundException</text>
</g>
<!-- \\Contentful\\ResourceNotFoundException&#45;&gt;\\RuntimeException -->
<g id="edge22" class="edge"><title>\\Contentful\\ResourceNotFoundException&#45;&gt;\\RuntimeException</title>
<path fill="none" stroke="black" d="M686.108,-616.504C682.258,-613.888 678.682,-610.906 675.498,-607.508 579.488,-505.036 711.326,-395.303 609.596,-298.508 579.23,-269.615 533.628,-260.833 493.863,-259.631"/>
<polygon fill="none" stroke="black" points="493.676,-256.128 483.626,-259.481 493.573,-263.127 493.676,-256.128"/>
</g>
</g>
</svg>
