<?xml version="1.0" encoding="UTF-8" standalone="no"?>
<!DOCTYPE svg PUBLIC "-//W3C//DTD SVG 1.1//EN"
 "http://www.w3.org/Graphics/SVG/1.1/DTD/svg11.dtd">
<!-- Generated by graphviz version 2.38.0 (20140413.2041)
 -->
<!-- Title: G Pages: 1 -->
<svg width="909pt" height="2194pt"
 viewBox="0.00 0.00 908.72 2194.09" xmlns="http://www.w3.org/2000/svg" xmlns:xlink="http://www.w3.org/1999/xlink">
<g id="graph0" class="graph" transform="scale(1 1) rotate(0) translate(4 2190.09)">
<title>G</title>
<polygon fill="white" stroke="none" points="-4,4 -4,-2190.09 904.721,-2190.09 904.721,4 -4,4"/>
<g id="clust1" class="cluster"><title>cluster_Global</title>
<path fill="none" stroke="gray" d="M333.319,-439.09C333.319,-439.09 880.721,-439.09 880.721,-439.09 886.721,-439.09 892.721,-445.09 892.721,-451.09 892.721,-451.09 892.721,-2166.09 892.721,-2166.09 892.721,-2172.09 886.721,-2178.09 880.721,-2178.09 880.721,-2178.09 333.319,-2178.09 333.319,-2178.09 327.319,-2178.09 321.319,-2172.09 321.319,-2166.09 321.319,-2166.09 321.319,-451.09 321.319,-451.09 321.319,-445.09 327.319,-439.09 333.319,-439.09"/>
<text text-anchor="middle" x="607.02" y="-2165.29" font-family="Times,serif" font-size="11.00" fill="gray">Global</text>
</g>
<g id="clust2" class="cluster"><title>cluster_\Contentful</title>
<path fill="none" stroke="gray" d="M341.319,-447.09C341.319,-447.09 872.721,-447.09 872.721,-447.09 878.721,-447.09 884.721,-453.09 884.721,-459.09 884.721,-459.09 884.721,-2139.09 884.721,-2139.09 884.721,-2145.09 878.721,-2151.09 872.721,-2151.09 872.721,-2151.09 341.319,-2151.09 341.319,-2151.09 335.319,-2151.09 329.319,-2145.09 329.319,-2139.09 329.319,-2139.09 329.319,-459.09 329.319,-459.09 329.319,-453.09 335.319,-447.09 341.319,-447.09"/>
<text text-anchor="middle" x="607.02" y="-2138.29" font-family="Times,serif" font-size="11.00" fill="gray">Contentful</text>
</g>
<g id="clust3" class="cluster"><title>cluster_\Contentful\Delivery</title>
<path fill="none" stroke="gray" d="M349.319,-663.09C349.319,-663.09 864.721,-663.09 864.721,-663.09 870.721,-663.09 876.721,-669.09 876.721,-675.09 876.721,-675.09 876.721,-2014.09 876.721,-2014.09 876.721,-2020.09 870.721,-2026.09 864.721,-2026.09 864.721,-2026.09 349.319,-2026.09 349.319,-2026.09 343.319,-2026.09 337.319,-2020.09 337.319,-2014.09 337.319,-2014.09 337.319,-675.09 337.319,-675.09 337.319,-669.09 343.319,-663.09 349.319,-663.09"/>
<text text-anchor="middle" x="607.02" y="-2013.29" font-family="Times,serif" font-size="11.00" fill="gray">Delivery</text>
</g>
<g id="clust4" class="cluster"><title>cluster_\Contentful\Delivery\Synchronization</title>
<path fill="none" stroke="gray" d="M357.319,-1712.09C357.319,-1712.09 815.716,-1712.09 815.716,-1712.09 821.716,-1712.09 827.716,-1718.09 827.716,-1724.09 827.716,-1724.09 827.716,-1987.09 827.716,-1987.09 827.716,-1993.09 821.716,-1999.09 815.716,-1999.09 815.716,-1999.09 357.319,-1999.09 357.319,-1999.09 351.319,-1999.09 345.319,-1993.09 345.319,-1987.09 345.319,-1987.09 345.319,-1724.09 345.319,-1724.09 345.319,-1718.09 351.319,-1712.09 357.319,-1712.09"/>
<text text-anchor="middle" x="586.517" y="-1986.29" font-family="Times,serif" font-size="11.00" fill="gray">Synchronization</text>
</g>
<g id="clust5" class="cluster"><title>cluster_\Contentful\Delivery\Console</title>
<path fill="none" stroke="gray" d="M687.498,-1552.09C687.498,-1552.09 856.721,-1552.09 856.721,-1552.09 862.721,-1552.09 868.721,-1558.09 868.721,-1564.09 868.721,-1564.09 868.721,-1692.09 868.721,-1692.09 868.721,-1698.09 862.721,-1704.09 856.721,-1704.09 856.721,-1704.09 687.498,-1704.09 687.498,-1704.09 681.498,-1704.09 675.498,-1698.09 675.498,-1692.09 675.498,-1692.09 675.498,-1564.09 675.498,-1564.09 675.498,-1558.09 681.498,-1552.09 687.498,-1552.09"/>
<text text-anchor="middle" x="772.109" y="-1691.29" font-family="Times,serif" font-size="11.00" fill="gray">Console</text>
</g>
<g id="clust6" class="cluster"><title>cluster_\Contentful\Delivery\Console\Command</title>
<path fill="none" stroke="gray" d="M695.498,-1606.09C695.498,-1606.09 848.721,-1606.09 848.721,-1606.09 854.721,-1606.09 860.721,-1612.09 860.721,-1618.09 860.721,-1618.09 860.721,-1665.09 860.721,-1665.09 860.721,-1671.09 854.721,-1677.09 848.721,-1677.09 848.721,-1677.09 695.498,-1677.09 695.498,-1677.09 689.498,-1677.09 683.498,-1671.09 683.498,-1665.09 683.498,-1665.09 683.498,-1618.09 683.498,-1618.09 683.498,-1612.09 689.498,-1606.09 695.498,-1606.09"/>
<text text-anchor="middle" x="772.109" y="-1664.29" font-family="Times,serif" font-size="11.00" fill="gray">Command</text>
</g>
<g id="clust7" class="cluster"><title>cluster_\Contentful\Delivery\Tool</title>
<path fill="none" stroke="gray" d="M721.902,-1473.09C721.902,-1473.09 822.317,-1473.09 822.317,-1473.09 828.317,-1473.09 834.317,-1479.09 834.317,-1485.09 834.317,-1485.09 834.317,-1532.09 834.317,-1532.09 834.317,-1538.09 828.317,-1544.09 822.317,-1544.09 822.317,-1544.09 721.902,-1544.09 721.902,-1544.09 715.902,-1544.09 709.902,-1538.09 709.902,-1532.09 709.902,-1532.09 709.902,-1485.09 709.902,-1485.09 709.902,-1479.09 715.902,-1473.09 721.902,-1473.09"/>
<text text-anchor="middle" x="772.109" y="-1531.29" font-family="Times,serif" font-size="11.00" fill="gray">Tool</text>
</g>
<!-- \\Contentful\\Delivery\\Synchronization\\Query -->
<g id="node1" class="node"><title>\\Contentful\\Delivery\\Synchronization\\Query</title>
<polygon fill="none" stroke="black" points="799.109,-1972.09 745.109,-1972.09 745.109,-1936.09 799.109,-1936.09 799.109,-1972.09"/>
<text text-anchor="middle" x="772.109" y="-1950.79" font-family="Courier,monospace" font-size="11.00">Query</text>
</g>
<!-- \\Contentful\\Delivery\\Synchronization\\Result -->
<g id="node2" class="node"><title>\\Contentful\\Delivery\\Synchronization\\Result</title>
<polygon fill="none" stroke="black" points="799.717,-1918.09 744.501,-1918.09 744.501,-1882.09 799.717,-1882.09 799.717,-1918.09"/>
<text text-anchor="middle" x="772.109" y="-1896.79" font-family="Courier,monospace" font-size="11.00">Result</text>
</g>
<!-- \\Contentful\\Delivery\\Synchronization\\DeletedResource -->
<g id="node3" class="node"><title>\\Contentful\\Delivery\\Synchronization\\DeletedResource</title>
<polygon fill="none" stroke="black" points="468.343,-1756.09 353.311,-1756.09 353.311,-1720.09 468.343,-1720.09 468.343,-1756.09"/>
<text text-anchor="start" x="377.822" y="-1740.29" font-family="Courier,monospace" font-size="11.00">«abstract»</text>
<text text-anchor="start" x="361.319" y="-1729.29" font-family="Courier,monospace" font-size="11.00">DeletedResource</text>
</g>
<!-- \\JsonSerializable -->
<g id="node34" class="node"><title>\\JsonSerializable</title>
<ellipse fill="none" stroke="black" cx="70.0291" cy="-750.09" rx="70.0582" ry="18"/>
<text text-anchor="middle" x="70.0291" y="-745.89" font-family="Times,serif" font-size="14.00" fill="gray">\JsonSerializable</text>
</g>
<!-- \\Contentful\\Delivery\\Synchronization\\DeletedResource&#45;&gt;\\JsonSerializable -->
<g id="edge13" class="edge"><title>\\Contentful\\Delivery\\Synchronization\\DeletedResource&#45;&gt;\\JsonSerializable</title>
<path fill="none" stroke="black" stroke-dasharray="1,5" d="M353.111,-1748.67C308.772,-1753.41 248.7,-1751.5 212.058,-1716.09 73.5297,-1582.22 69.8201,-924.371 70.7269,-778.691"/>
<polygon fill="none" stroke="black" points="74.2292,-778.393 70.8049,-768.367 67.2294,-778.34 74.2292,-778.393"/>
</g>
<!-- \\Contentful\\Delivery\\Synchronization\\Manager -->
<g id="node4" class="node"><title>\\Contentful\\Delivery\\Synchronization\\Manager</title>
<polygon fill="none" stroke="black" points="803.317,-1864.09 740.901,-1864.09 740.901,-1828.09 803.317,-1828.09 803.317,-1864.09"/>
<text text-anchor="middle" x="772.109" y="-1842.79" font-family="Courier,monospace" font-size="11.00">Manager</text>
</g>
<!-- \\Contentful\\Delivery\\Synchronization\\DeletedEntry -->
<g id="node5" class="node"><title>\\Contentful\\Delivery\\Synchronization\\DeletedEntry</title>
<polygon fill="none" stroke="black" points="819.822,-1810.09 724.396,-1810.09 724.396,-1774.09 819.822,-1774.09 819.822,-1810.09"/>
<text text-anchor="middle" x="772.109" y="-1788.79" font-family="Courier,monospace" font-size="11.00">DeletedEntry</text>
</g>
<!-- \\Contentful\\Delivery\\Synchronization\\DeletedEntry&#45;&gt;\\Contentful\\Delivery\\Synchronization\\DeletedResource -->
<g id="edge17" class="edge"><title>\\Contentful\\Delivery\\Synchronization\\DeletedEntry&#45;&gt;\\Contentful\\Delivery\\Synchronization\\DeletedResource</title>
<path fill="none" stroke="black" d="M724.296,-1781.72C692.152,-1774.87 648.441,-1766.09 609.596,-1760.09 566.188,-1753.39 517.117,-1747.92 478.714,-1744.11"/>
<polygon fill="none" stroke="black" points="478.979,-1740.62 468.686,-1743.13 478.298,-1747.58 478.979,-1740.62"/>
</g>
<!-- \\Contentful\\Delivery\\Synchronization\\DeletedAsset -->
<g id="node6" class="node"><title>\\Contentful\\Delivery\\Synchronization\\DeletedAsset</title>
<polygon fill="none" stroke="black" points="819.822,-1756.09 724.396,-1756.09 724.396,-1720.09 819.822,-1720.09 819.822,-1756.09"/>
<text text-anchor="middle" x="772.109" y="-1734.79" font-family="Courier,monospace" font-size="11.00">DeletedAsset</text>
</g>
<!-- \\Contentful\\Delivery\\Synchronization\\DeletedAsset&#45;&gt;\\Contentful\\Delivery\\Synchronization\\DeletedResource -->
<g id="edge25" class="edge"><title>\\Contentful\\Delivery\\Synchronization\\DeletedAsset&#45;&gt;\\Contentful\\Delivery\\Synchronization\\DeletedResource</title>
<path fill="none" stroke="black" d="M724.139,-1738.09C661.502,-1738.09 550.243,-1738.09 478.818,-1738.09"/>
<polygon fill="none" stroke="black" points="478.58,-1734.59 468.58,-1738.09 478.58,-1741.59 478.58,-1734.59"/>
</g>
<!-- \\Contentful\\Delivery\\Console\\Command\\GenerateClassesCommand -->
<g id="node7" class="node"><title>\\Contentful\\Delivery\\Console\\Command\\GenerateClassesCommand</title>
<polygon fill="none" stroke="black" points="852.833,-1650.09 691.386,-1650.09 691.386,-1614.09 852.833,-1614.09 852.833,-1650.09"/>
<text text-anchor="middle" x="772.109" y="-1628.79" font-family="Courier,monospace" font-size="11.00">GenerateClassesCommand</text>
</g>
<!-- \\Symfony\\Component\\Console\\Command\\Command -->
<g id="node40" class="node"><title>\\Symfony\\Component\\Console\\Command\\Command</title>
<ellipse fill="none" stroke="black" cx="410.827" cy="-413.09" rx="198.538" ry="18"/>
<text text-anchor="middle" x="410.827" y="-408.89" font-family="Times,serif" font-size="14.00" fill="gray">\Symfony\Component\Console\Command\Command</text>
</g>
<!-- \\Contentful\\Delivery\\Console\\Command\\GenerateClassesCommand&#45;&gt;\\Symfony\\Component\\Console\\Command\\Command -->
<g id="edge19" class="edge"><title>\\Contentful\\Delivery\\Console\\Command\\GenerateClassesCommand&#45;&gt;\\Symfony\\Component\\Console\\Command\\Command</title>
<path fill="none" stroke="black" d="M691.222,-1622.6C685.299,-1619.37 679.923,-1615.27 675.498,-1610.09 537.91,-1449.01 686.825,-856.351 609.596,-659.09 572.752,-564.982 486.352,-478.794 440.92,-437.957"/>
<polygon fill="none" stroke="black" points="443,-435.123 433.199,-431.1 438.352,-440.357 443,-435.123"/>
</g>
<!-- \\Contentful\\Delivery\\Console\\Application -->
<g id="node8" class="node"><title>\\Contentful\\Delivery\\Console\\Application</title>
<polygon fill="none" stroke="black" points="816.222,-1596.09 727.997,-1596.09 727.997,-1560.09 816.222,-1560.09 816.222,-1596.09"/>
<text text-anchor="middle" x="772.109" y="-1574.79" font-family="Courier,monospace" font-size="11.00">Application</text>
</g>
<!-- \\Symfony\\Component\\Console\\Application -->
<g id="node39" class="node"><title>\\Symfony\\Component\\Console\\Application</title>
<ellipse fill="none" stroke="black" cx="410.827" cy="-359.09" rx="164.242" ry="18"/>
<text text-anchor="middle" x="410.827" y="-354.89" font-family="Times,serif" font-size="14.00" fill="gray">\Symfony\Component\Console\Application</text>
</g>
<!-- \\Contentful\\Delivery\\Console\\Application&#45;&gt;\\Symfony\\Component\\Console\\Application -->
<g id="edge11" class="edge"><title>\\Contentful\\Delivery\\Console\\Application&#45;&gt;\\Symfony\\Component\\Console\\Application</title>
<path fill="none" stroke="black" d="M727.726,-1575.27C708.692,-1571.66 687.898,-1564.01 675.498,-1548.09 516.575,-1344.04 785.112,-576.056 609.596,-386.09 601.944,-377.808 593.042,-371.195 583.331,-365.961"/>
<polygon fill="none" stroke="black" points="584.724,-362.747 574.199,-361.534 581.67,-369.046 584.724,-362.747"/>
</g>
<!-- \\Contentful\\Delivery\\Tool\\ClassGenerator -->
<g id="node9" class="node"><title>\\Contentful\\Delivery\\Tool\\ClassGenerator</title>
<polygon fill="none" stroke="black" points="826.525,-1517.09 717.693,-1517.09 717.693,-1481.09 826.525,-1481.09 826.525,-1517.09"/>
<text text-anchor="middle" x="772.109" y="-1495.79" font-family="Courier,monospace" font-size="11.00">ClassGenerator</text>
</g>
<!-- \\Contentful\\Delivery\\Query -->
<g id="node10" class="node"><title>\\Contentful\\Delivery\\Query</title>
<polygon fill="none" stroke="black" points="799.109,-1355.09 745.109,-1355.09 745.109,-1319.09 799.109,-1319.09 799.109,-1355.09"/>
<text text-anchor="middle" x="772.109" y="-1333.79" font-family="Courier,monospace" font-size="11.00">Query</text>
</g>
<!-- \\Contentful\\Query -->
<g id="node29" class="node"><title>\\Contentful\\Query</title>
<polygon fill="none" stroke="black" points="437.827,-2070.09 383.827,-2070.09 383.827,-2034.09 437.827,-2034.09 437.827,-2070.09"/>
<text text-anchor="middle" x="410.827" y="-2048.79" font-family="Courier,monospace" font-size="11.00">Query</text>
</g>
<!-- \\Contentful\\Delivery\\Query&#45;&gt;\\Contentful\\Query -->
<g id="edge1" class="edge"><title>\\Contentful\\Delivery\\Query&#45;&gt;\\Contentful\\Query</title>
<path fill="none" stroke="black" d="M744.945,-1336.9C722.914,-1338.27 692.371,-1344.02 675.498,-1364.09 491.751,-1582.61 796.853,-1787.57 609.596,-2003.09 569.538,-2049.19 493.554,-2055.4 448.325,-2054.55"/>
<polygon fill="none" stroke="black" points="448.179,-2051.04 438.074,-2054.23 447.959,-2058.04 448.179,-2051.04"/>
</g>
<!-- \\Contentful\\Delivery\\ResourceBuilder -->
<g id="node11" class="node"><title>\\Contentful\\Delivery\\ResourceBuilder</title>
<polygon fill="none" stroke="black" points="829.625,-1409.09 714.593,-1409.09 714.593,-1373.09 829.625,-1373.09 829.625,-1409.09"/>
<text text-anchor="middle" x="772.109" y="-1387.79" font-family="Courier,monospace" font-size="11.00">ResourceBuilder</text>
</g>
<!-- \\Contentful\\Delivery\\ContentTypeField -->
<g id="node12" class="node"><title>\\Contentful\\Delivery\\ContentTypeField</title>
<polygon fill="none" stroke="black" points="832.727,-1193.09 711.492,-1193.09 711.492,-1157.09 832.727,-1157.09 832.727,-1193.09"/>
<text text-anchor="middle" x="772.109" y="-1171.79" font-family="Courier,monospace" font-size="11.00">ContentTypeField</text>
</g>
<!-- \\Contentful\\Delivery\\ContentTypeField&#45;&gt;\\JsonSerializable -->
<g id="edge2" class="edge"><title>\\Contentful\\Delivery\\ContentTypeField&#45;&gt;\\JsonSerializable</title>
<path fill="none" stroke="black" stroke-dasharray="1,5" d="M711.091,-1169.77C697.517,-1165.71 684.48,-1159.02 675.498,-1148.09 559.966,-1007.56 737.255,-461.703 609.596,-332.09 547.633,-269.179 499.811,-320.572 411.827,-313.09"/>
</g>
<!-- \\Contentful\\Delivery\\SpaceMismatchException -->
<g id="node13" class="node"><title>\\Contentful\\Delivery\\SpaceMismatchException</title>
<polygon fill="none" stroke="black" points="852.833,-1031.09 691.386,-1031.09 691.386,-995.09 852.833,-995.09 852.833,-1031.09"/>
<text text-anchor="middle" x="772.109" y="-1009.79" font-family="Courier,monospace" font-size="11.00">SpaceMismatchException</text>
</g>
<!-- \\RuntimeException -->
<g id="node35" class="node"><title>\\RuntimeException</title>
<ellipse fill="none" stroke="black" cx="410.827" cy="-267.09" rx="78.7539" ry="18"/>
<text text-anchor="middle" x="410.827" y="-262.89" font-family="Times,serif" font-size="14.00" fill="gray">\RuntimeException</text>
</g>
<!-- \\Contentful\\Delivery\\SpaceMismatchException&#45;&gt;\\RuntimeException -->
<g id="edge3" class="edge"><title>\\Contentful\\Delivery\\SpaceMismatchException&#45;&gt;\\RuntimeException</title>
<path fill="none" stroke="black" d="M691.214,-999.174C685.293,-995.687 679.919,-991.387 675.498,-986.09 577.212,-868.355 714.474,-410.993 609.596,-299.09 579.932,-267.44 532.233,-259.033 491.112,-258.735"/>
<polygon fill="none" stroke="black" points="491.058,-255.235 481.088,-258.818 491.116,-262.235 491.058,-255.235"/>
</g>
<!-- \\Contentful\\Delivery\\LocalizedResource -->
<g id="node14" class="node"><title>\\Contentful\\Delivery\\LocalizedResource</title>
<polygon fill="none" stroke="black" points="475.045,-1098.09 346.609,-1098.09 346.609,-1062.09 475.045,-1062.09 475.045,-1098.09"/>
<text text-anchor="start" x="377.822" y="-1082.29" font-family="Courier,monospace" font-size="11.00">«abstract»</text>
<text text-anchor="start" x="354.718" y="-1071.29" font-family="Courier,monospace" font-size="11.00">LocalizedResource</text>
</g>
<!-- \\Contentful\\Delivery\\ContentType -->
<g id="node15" class="node"><title>\\Contentful\\Delivery\\ContentType</title>
<polygon fill="none" stroke="black" points="816.222,-923.09 727.997,-923.09 727.997,-887.09 816.222,-887.09 816.222,-923.09"/>
<text text-anchor="middle" x="772.109" y="-901.79" font-family="Courier,monospace" font-size="11.00">ContentType</text>
</g>
<!-- \\Contentful\\Delivery\\ContentType&#45;&gt;\\JsonSerializable -->
<g id="edge8" class="edge"><title>\\Contentful\\Delivery\\ContentType&#45;&gt;\\JsonSerializable</title>
<path fill="none" stroke="black" stroke-dasharray="1,5" d="M727.783,-903.256C708.999,-900.14 688.395,-893.161 675.498,-878.09 516.571,-692.382 784.523,-502.811 609.596,-332.09 546.402,-270.416 499.811,-320.572 411.827,-313.09"/>
</g>
<!-- \\Contentful\\Delivery\\DynamicEntry -->
<g id="node16" class="node"><title>\\Contentful\\Delivery\\DynamicEntry</title>
<polygon fill="none" stroke="black" points="819.822,-1247.09 724.396,-1247.09 724.396,-1211.09 819.822,-1211.09 819.822,-1247.09"/>
<text text-anchor="middle" x="772.109" y="-1225.79" font-family="Courier,monospace" font-size="11.00">DynamicEntry</text>
</g>
<!-- \\Contentful\\Delivery\\DynamicEntry&#45;&gt;\\Contentful\\Delivery\\LocalizedResource -->
<g id="edge9" class="edge"><title>\\Contentful\\Delivery\\DynamicEntry&#45;&gt;\\Contentful\\Delivery\\LocalizedResource</title>
<path fill="none" stroke="black" d="M724.474,-1218.73C708.596,-1214.48 690.96,-1208.92 675.498,-1202.09 643.943,-1188.15 640.31,-1176.79 609.596,-1161.09 564.733,-1138.15 511.814,-1116.76 472.011,-1101.72"/>
<polygon fill="none" stroke="black" points="473.037,-1098.37 462.444,-1098.14 470.579,-1104.92 473.037,-1098.37"/>
</g>
<!-- \\Contentful\\Delivery\\EntryInterface -->
<g id="node27" class="node"><title>\\Contentful\\Delivery\\EntryInterface</title>
<polygon fill="none" stroke="black" points="465.243,-1206.09 356.411,-1206.09 356.411,-1170.09 465.243,-1170.09 465.243,-1206.09"/>
<text text-anchor="middle" x="410.827" y="-1184.79" font-family="Courier,monospace" font-size="11.00">EntryInterface</text>
</g>
<!-- \\Contentful\\Delivery\\DynamicEntry&#45;&gt;\\Contentful\\Delivery\\EntryInterface -->
<g id="edge10" class="edge"><title>\\Contentful\\Delivery\\DynamicEntry&#45;&gt;\\Contentful\\Delivery\\EntryInterface</title>
<path fill="none" stroke="black" stroke-dasharray="1,5" d="M724.139,-1223.73C660.505,-1216.47 546.689,-1203.48 475.438,-1195.35"/>
<polygon fill="none" stroke="black" points="475.578,-1191.84 465.245,-1194.19 474.784,-1198.8 475.578,-1191.84"/>
</g>
<!-- \\Contentful\\Delivery\\InstanceCache -->
<g id="node17" class="node"><title>\\Contentful\\Delivery\\InstanceCache</title>
<polygon fill="none" stroke="black" points="822.923,-1139.09 721.295,-1139.09 721.295,-1103.09 822.923,-1103.09 822.923,-1139.09"/>
<text text-anchor="middle" x="772.109" y="-1117.79" font-family="Courier,monospace" font-size="11.00">InstanceCache</text>
</g>
<!-- \\Contentful\\Delivery\\File -->
<g id="node18" class="node"><title>\\Contentful\\Delivery\\File</title>
<polygon fill="none" stroke="black" points="437.827,-1287.09 383.827,-1287.09 383.827,-1251.09 437.827,-1251.09 437.827,-1287.09"/>
<text text-anchor="middle" x="410.827" y="-1265.79" font-family="Courier,monospace" font-size="11.00">File</text>
</g>
<!-- \\Contentful\\Delivery\\File&#45;&gt;\\JsonSerializable -->
<g id="edge12" class="edge"><title>\\Contentful\\Delivery\\File&#45;&gt;\\JsonSerializable</title>
<path fill="none" stroke="black" stroke-dasharray="1,5" d="M383.521,-1269.53C341.523,-1268.75 259.263,-1261 212.058,-1215.09 85.5595,-1092.08 71.6252,-859.664 70.7608,-778.738"/>
<polygon fill="none" stroke="black" points="74.2592,-778.336 70.7152,-768.351 67.2592,-778.367 74.2592,-778.336"/>
</g>
<!-- \\Contentful\\Delivery\\SystemProperties -->
<g id="node19" class="node"><title>\\Contentful\\Delivery\\SystemProperties</title>
<polygon fill="none" stroke="black" points="832.727,-815.09 711.492,-815.09 711.492,-779.09 832.727,-779.09 832.727,-815.09"/>
<text text-anchor="middle" x="772.109" y="-793.79" font-family="Courier,monospace" font-size="11.00">SystemProperties</text>
</g>
<!-- \\Contentful\\Delivery\\SystemProperties&#45;&gt;\\JsonSerializable -->
<g id="edge15" class="edge"><title>\\Contentful\\Delivery\\SystemProperties&#45;&gt;\\JsonSerializable</title>
<path fill="none" stroke="black" stroke-dasharray="1,5" d="M409.827,-313.09C321.843,-305.608 281.239,-277.215 212.058,-332.09 87.3816,-430.985 72.1859,-644.71 70.8847,-721.714"/>
<polygon fill="none" stroke="black" points="67.3816,-722.019 70.7822,-732.053 74.3813,-722.088 67.3816,-722.019"/>
<path fill="none" stroke="black" stroke-dasharray="1,5" d="M711.107,-791.182C697.7,-787.123 684.736,-780.571 675.498,-770.09 545.329,-622.411 752.473,-467.512 609.596,-332.09 545.507,-271.346 499.811,-320.572 411.827,-313.09"/>
</g>
<!-- \\Contentful\\Delivery\\Client -->
<g id="node20" class="node"><title>\\Contentful\\Delivery\\Client</title>
<polygon fill="none" stroke="black" points="799.717,-1463.09 744.501,-1463.09 744.501,-1427.09 799.717,-1427.09 799.717,-1463.09"/>
<text text-anchor="middle" x="772.109" y="-1441.79" font-family="Courier,monospace" font-size="11.00">Client</text>
</g>
<!-- \\Contentful\\Client -->
<g id="node33" class="node"><title>\\Contentful\\Client</title>
<polygon fill="none" stroke="black" points="451.838,-2124.09 369.816,-2124.09 369.816,-2088.09 451.838,-2088.09 451.838,-2124.09"/>
<text text-anchor="start" x="377.822" y="-2108.29" font-family="Courier,monospace" font-size="11.00">«abstract»</text>
<text text-anchor="start" x="391.024" y="-2097.29" font-family="Courier,monospace" font-size="11.00">Client</text>
</g>
<!-- \\Contentful\\Delivery\\Client&#45;&gt;\\Contentful\\Client -->
<g id="edge16" class="edge"><title>\\Contentful\\Delivery\\Client&#45;&gt;\\Contentful\\Client</title>
<path fill="none" stroke="black" d="M744.176,-1444.07C722.281,-1444.82 692.352,-1449.73 675.498,-1469.09 496.463,-1674.77 799.691,-1883.58 609.596,-2079.09 572.056,-2117.7 507.22,-2119.38 462.058,-2114.75"/>
<polygon fill="none" stroke="black" points="462.222,-2111.24 451.884,-2113.56 461.412,-2118.19 462.222,-2111.24"/>
</g>
<!-- \\Contentful\\Delivery\\ImageOptions -->
<g id="node21" class="node"><title>\\Contentful\\Delivery\\ImageOptions</title>
<polygon fill="none" stroke="black" points="819.822,-977.09 724.396,-977.09 724.396,-941.09 819.822,-941.09 819.822,-977.09"/>
<text text-anchor="middle" x="772.109" y="-955.79" font-family="Courier,monospace" font-size="11.00">ImageOptions</text>
</g>
<!-- \\Contentful\\Delivery\\ImageFile -->
<g id="node22" class="node"><title>\\Contentful\\Delivery\\ImageFile</title>
<polygon fill="none" stroke="black" points="810.02,-1301.09 734.199,-1301.09 734.199,-1265.09 810.02,-1265.09 810.02,-1301.09"/>
<text text-anchor="middle" x="772.109" y="-1279.79" font-family="Courier,monospace" font-size="11.00">ImageFile</text>
</g>
<!-- \\Contentful\\Delivery\\ImageFile&#45;&gt;\\Contentful\\Delivery\\File -->
<g id="edge18" class="edge"><title>\\Contentful\\Delivery\\ImageFile&#45;&gt;\\Contentful\\Delivery\\File</title>
<path fill="none" stroke="black" d="M734.348,-1281.66C665.424,-1278.97 517.531,-1273.21 448.599,-1270.52"/>
<polygon fill="none" stroke="black" points="448.367,-1267.01 438.238,-1270.12 448.094,-1274.01 448.367,-1267.01"/>
</g>
<!-- \\Contentful\\Delivery\\Link -->
<g id="node23" class="node"><title>\\Contentful\\Delivery\\Link</title>
<polygon fill="none" stroke="black" points="799.109,-869.09 745.109,-869.09 745.109,-833.09 799.109,-833.09 799.109,-869.09"/>
<text text-anchor="middle" x="772.109" y="-847.79" font-family="Courier,monospace" font-size="11.00">Link</text>
</g>
<!-- \\Contentful\\Delivery\\Locale -->
<g id="node24" class="node"><title>\\Contentful\\Delivery\\Locale</title>
<polygon fill="none" stroke="black" points="799.717,-761.09 744.501,-761.09 744.501,-725.09 799.717,-725.09 799.717,-761.09"/>
<text text-anchor="middle" x="772.109" y="-739.79" font-family="Courier,monospace" font-size="11.00">Locale</text>
</g>
<!-- \\Contentful\\Delivery\\Locale&#45;&gt;\\JsonSerializable -->
<g id="edge20" class="edge"><title>\\Contentful\\Delivery\\Locale&#45;&gt;\\JsonSerializable</title>
<path fill="none" stroke="black" stroke-dasharray="1,5" d="M744.247,-743.071C722.396,-741.516 692.491,-735.6 675.498,-716.09 535.222,-555.043 763.738,-387.921 609.596,-240.09 545.866,-178.97 500.009,-216.493 411.827,-221.09"/>
</g>
<!-- \\Contentful\\Delivery\\Space -->
<g id="node25" class="node"><title>\\Contentful\\Delivery\\Space</title>
<polygon fill="none" stroke="black" points="799.109,-707.09 745.109,-707.09 745.109,-671.09 799.109,-671.09 799.109,-707.09"/>
<text text-anchor="middle" x="772.109" y="-685.79" font-family="Courier,monospace" font-size="11.00">Space</text>
</g>
<!-- \\Contentful\\Delivery\\Space&#45;&gt;\\JsonSerializable -->
<g id="edge21" class="edge"><title>\\Contentful\\Delivery\\Space&#45;&gt;\\JsonSerializable</title>
<path fill="none" stroke="black" stroke-dasharray="1,5" d="M744.887,-690.531C723.127,-690.198 693.008,-685.929 675.498,-667.09 544.763,-526.442 749.215,-371.923 609.596,-240.09 545.392,-179.467 500.009,-216.493 411.827,-221.09"/>
</g>
<!-- \\Contentful\\Delivery\\Asset -->
<g id="node26" class="node"><title>\\Contentful\\Delivery\\Asset</title>
<polygon fill="none" stroke="black" points="799.109,-1085.09 745.109,-1085.09 745.109,-1049.09 799.109,-1049.09 799.109,-1085.09"/>
<text text-anchor="middle" x="772.109" y="-1063.79" font-family="Courier,monospace" font-size="11.00">Asset</text>
</g>
<!-- \\Contentful\\Delivery\\Asset&#45;&gt;\\Contentful\\Delivery\\LocalizedResource -->
<g id="edge23" class="edge"><title>\\Contentful\\Delivery\\Asset&#45;&gt;\\Contentful\\Delivery\\LocalizedResource</title>
<path fill="none" stroke="black" d="M744.981,-1068.04C691.092,-1069.99 565.911,-1074.52 485.271,-1077.43"/>
<polygon fill="none" stroke="black" points="485.045,-1073.94 475.178,-1077.8 485.298,-1080.93 485.045,-1073.94"/>
</g>
<!-- \\Contentful\\Delivery\\Asset&#45;&gt;\\JsonSerializable -->
<g id="edge24" class="edge"><title>\\Contentful\\Delivery\\Asset&#45;&gt;\\JsonSerializable</title>
<path fill="none" stroke="black" stroke-dasharray="1,5" d="M744.896,-1067.32C722.833,-1065.98 692.271,-1060.24 675.498,-1040.09 574.406,-918.646 721.163,-443.988 609.596,-332.09 547.25,-269.559 499.811,-320.572 411.827,-313.09"/>
</g>
<!-- \\Contentful\\Delivery\\EntryInterface&#45;&gt;\\JsonSerializable -->
<g id="edge26" class="edge"><title>\\Contentful\\Delivery\\EntryInterface&#45;&gt;\\JsonSerializable</title>
<path fill="none" stroke="black" d="M356.3,-1178.3C312.342,-1167.69 251.165,-1146.69 212.058,-1107.09 117.578,-1011.42 84.4224,-844.792 74.6146,-778.487"/>
<polygon fill="none" stroke="black" points="78.0508,-777.788 73.1872,-768.375 71.1195,-778.766 78.0508,-777.788"/>
</g>
<!-- \\Contentful\\ResourceArray -->
<g id="node28" class="node"><title>\\Contentful\\ResourceArray</title>
<polygon fill="none" stroke="black" points="822.923,-599.09 721.295,-599.09 721.295,-563.09 822.923,-563.09 822.923,-599.09"/>
<text text-anchor="middle" x="772.109" y="-577.79" font-family="Courier,monospace" font-size="11.00">ResourceArray</text>
</g>
<!-- \\Contentful\\ResourceArray&#45;&gt;\\JsonSerializable -->
<g id="edge7" class="edge"><title>\\Contentful\\ResourceArray&#45;&gt;\\JsonSerializable</title>
<path fill="none" stroke="black" stroke-dasharray="1,5" d="M720.982,-577.275C704.435,-573.574 687.27,-566.696 675.498,-554.09 578.171,-449.873 715.869,-335.167 609.596,-240.09 543.787,-181.214 500.009,-216.493 411.827,-221.09"/>
<path fill="none" stroke="black" stroke-dasharray="1,5" d="M409.827,-221.09C321.645,-225.687 279.686,-183.313 212.058,-240.09 135.936,-303.998 87.7391,-624.25 74.6462,-721.827"/>
<polygon fill="none" stroke="black" points="71.1638,-721.465 73.3222,-731.837 78.1034,-722.383 71.1638,-721.465"/>
</g>
<!-- \\Countable -->
<g id="node36" class="node"><title>\\Countable</title>
<ellipse fill="none" stroke="black" cx="410.827" cy="-175.09" rx="48.8273" ry="18"/>
<text text-anchor="middle" x="410.827" y="-170.89" font-family="Times,serif" font-size="14.00" fill="gray">\Countable</text>
</g>
<!-- \\Contentful\\ResourceArray&#45;&gt;\\Countable -->
<g id="edge4" class="edge"><title>\\Contentful\\ResourceArray&#45;&gt;\\Countable</title>
<path fill="none" stroke="black" stroke-dasharray="1,5" d="M720.847,-577.4C704.287,-573.711 687.149,-566.809 675.498,-554.09 569.46,-438.339 722.1,-316.567 609.596,-207.09 572.479,-170.972 511.632,-166.044 467.218,-168.242"/>
<polygon fill="none" stroke="black" points="466.917,-164.754 457.157,-168.874 467.356,-171.74 466.917,-164.754"/>
</g>
<!-- \\ArrayAccess -->
<g id="node37" class="node"><title>\\ArrayAccess</title>
<ellipse fill="none" stroke="black" cx="410.827" cy="-121.09" rx="58.465" ry="18"/>
<text text-anchor="middle" x="410.827" y="-116.89" font-family="Times,serif" font-size="14.00" fill="gray">\ArrayAccess</text>
</g>
<!-- \\Contentful\\ResourceArray&#45;&gt;\\ArrayAccess -->
<g id="edge5" class="edge"><title>\\Contentful\\ResourceArray&#45;&gt;\\ArrayAccess</title>
<path fill="none" stroke="black" stroke-dasharray="1,5" d="M721.153,-577.681C704.42,-574.038 687.092,-567.092 675.498,-554.09 553.829,-417.654 740.48,-275.713 609.596,-148.09 574.148,-113.526 516.669,-109.132 472.789,-111.999"/>
<polygon fill="none" stroke="black" points="472.492,-108.511 462.8,-112.79 473.045,-115.489 472.492,-108.511"/>
</g>
<!-- \\IteratorAggregate -->
<g id="node38" class="node"><title>\\IteratorAggregate</title>
<ellipse fill="none" stroke="black" cx="410.827" cy="-67.0903" rx="75.3276" ry="18"/>
<text text-anchor="middle" x="410.827" y="-62.8903" font-family="Times,serif" font-size="14.00" fill="gray">\IteratorAggregate</text>
</g>
<!-- \\Contentful\\ResourceArray&#45;&gt;\\IteratorAggregate -->
<g id="edge6" class="edge"><title>\\Contentful\\ResourceArray&#45;&gt;\\IteratorAggregate</title>
<path fill="none" stroke="black" stroke-dasharray="1,5" d="M721.02,-577.8C704.273,-574.168 686.971,-567.2 675.498,-554.09 539.479,-398.673 756.118,-239.647 609.596,-94.0903 577.686,-62.3904 527.293,-55.8947 485.363,-57.1942"/>
<polygon fill="none" stroke="black" points="485.007,-53.7068 475.179,-57.6648 485.33,-60.6993 485.007,-53.7068"/>
</g>
<!-- \\Contentful\\Location -->
<g id="node30" class="node"><title>\\Contentful\\Location</title>
<polygon fill="none" stroke="black" points="806.418,-491.09 737.8,-491.09 737.8,-455.09 806.418,-455.09 806.418,-491.09"/>
<text text-anchor="middle" x="772.109" y="-469.79" font-family="Courier,monospace" font-size="11.00">Location</text>
</g>
<!-- \\Contentful\\Location&#45;&gt;\\JsonSerializable -->
<g id="edge14" class="edge"><title>\\Contentful\\Location&#45;&gt;\\JsonSerializable</title>
<path fill="none" stroke="black" stroke-dasharray="1,5" d="M771.008,-454.85C769.517,-385.938 753.929,-140.3 609.596,-40.0903 537.03,10.292 280.34,15.9623 212.058,-40.0903 103.97,-128.82 77.2294,-599.866 72.087,-721.441"/>
<polygon fill="none" stroke="black" points="68.5757,-721.649 71.6667,-731.783 75.5699,-721.933 68.5757,-721.649"/>
</g>
<!-- \\Contentful\\BearerToken -->
<g id="node31" class="node"><title>\\Contentful\\BearerToken</title>
<polygon fill="none" stroke="black" points="816.222,-545.09 727.997,-545.09 727.997,-509.09 816.222,-509.09 816.222,-545.09"/>
<text text-anchor="middle" x="772.109" y="-523.79" font-family="Courier,monospace" font-size="11.00">BearerToken</text>
</g>
<!-- \\Contentful\\ResourceNotFoundException -->
<g id="node32" class="node"><title>\\Contentful\\ResourceNotFoundException</title>
<polygon fill="none" stroke="black" points="862.636,-653.09 681.582,-653.09 681.582,-617.09 862.636,-617.09 862.636,-653.09"/>
<text text-anchor="middle" x="772.109" y="-631.79" font-family="Courier,monospace" font-size="11.00">ResourceNotFoundException</text>
</g>
<!-- \\Contentful\\ResourceNotFoundException&#45;&gt;\\RuntimeException -->
<g id="edge22" class="edge"><title>\\Contentful\\ResourceNotFoundException&#45;&gt;\\RuntimeException</title>
<path fill="none" stroke="black" d="M686.108,-617.086C682.258,-614.471 678.682,-611.489 675.498,-608.09 579.488,-505.618 711.326,-395.885 609.596,-299.09 579.23,-270.198 533.628,-261.416 493.863,-260.213"/>
<polygon fill="none" stroke="black" points="493.676,-256.71 483.626,-260.063 493.573,-263.71 493.676,-256.71"/>
</g>
</g>
</svg>
