<?xml version="1.0" encoding="UTF-8" standalone="no"?>
<!DOCTYPE svg PUBLIC "-//W3C//DTD SVG 1.1//EN"
 "http://www.w3.org/Graphics/SVG/1.1/DTD/svg11.dtd">
<!-- Generated by graphviz version 2.38.0 (20140413.2041)
 -->
<!-- Title: G Pages: 1 -->
<svg width="909pt" height="2514pt"
 viewBox="0.00 0.00 908.72 2514.31" xmlns="http://www.w3.org/2000/svg" xmlns:xlink="http://www.w3.org/1999/xlink">
<g id="graph0" class="graph" transform="scale(1 1) rotate(0) translate(4 2510.31)">
<title>G</title>
<polygon fill="white" stroke="none" points="-4,4 -4,-2510.31 904.721,-2510.31 904.721,4 -4,4"/>
<g id="clust1" class="cluster"><title>cluster_Global</title>
<path fill="none" stroke="gray" d="M333.319,-474.311C333.319,-474.311 880.721,-474.311 880.721,-474.311 886.721,-474.311 892.721,-480.311 892.721,-486.311 892.721,-486.311 892.721,-2486.31 892.721,-2486.31 892.721,-2492.31 886.721,-2498.31 880.721,-2498.31 880.721,-2498.31 333.319,-2498.31 333.319,-2498.31 327.319,-2498.31 321.319,-2492.31 321.319,-2486.31 321.319,-2486.31 321.319,-486.311 321.319,-486.311 321.319,-480.311 327.319,-474.311 333.319,-474.311"/>
<text text-anchor="middle" x="607.02" y="-2485.51" font-family="Times,serif" font-size="11.00" fill="gray">Global</text>
</g>
<g id="clust2" class="cluster"><title>cluster_\Contentful</title>
<path fill="none" stroke="gray" d="M341.319,-482.311C341.319,-482.311 872.721,-482.311 872.721,-482.311 878.721,-482.311 884.721,-488.311 884.721,-494.311 884.721,-494.311 884.721,-2459.31 884.721,-2459.31 884.721,-2465.31 878.721,-2471.31 872.721,-2471.31 872.721,-2471.31 341.319,-2471.31 341.319,-2471.31 335.319,-2471.31 329.319,-2465.31 329.319,-2459.31 329.319,-2459.31 329.319,-494.311 329.319,-494.311 329.319,-488.311 335.319,-482.311 341.319,-482.311"/>
<text text-anchor="middle" x="607.02" y="-2458.51" font-family="Times,serif" font-size="11.00" fill="gray">Contentful</text>
</g>
<g id="clust3" class="cluster"><title>cluster_\Contentful\Delivery</title>
<path fill="none" stroke="gray" d="M349.319,-1037.31C349.319,-1037.31 864.721,-1037.31 864.721,-1037.31 870.721,-1037.31 876.721,-1043.31 876.721,-1049.31 876.721,-1049.31 876.721,-2388.31 876.721,-2388.31 876.721,-2394.31 870.721,-2400.31 864.721,-2400.31 864.721,-2400.31 349.319,-2400.31 349.319,-2400.31 343.319,-2400.31 337.319,-2394.31 337.319,-2388.31 337.319,-2388.31 337.319,-1049.31 337.319,-1049.31 337.319,-1043.31 343.319,-1037.31 349.319,-1037.31"/>
<text text-anchor="middle" x="607.02" y="-2387.51" font-family="Times,serif" font-size="11.00" fill="gray">Delivery</text>
</g>
<g id="clust4" class="cluster"><title>cluster_\Contentful\Delivery\Synchronization</title>
<path fill="none" stroke="gray" d="M357.319,-2086.31C357.319,-2086.31 815.716,-2086.31 815.716,-2086.31 821.716,-2086.31 827.716,-2092.31 827.716,-2098.31 827.716,-2098.31 827.716,-2361.31 827.716,-2361.31 827.716,-2367.31 821.716,-2373.31 815.716,-2373.31 815.716,-2373.31 357.319,-2373.31 357.319,-2373.31 351.319,-2373.31 345.319,-2367.31 345.319,-2361.31 345.319,-2361.31 345.319,-2098.31 345.319,-2098.31 345.319,-2092.31 351.319,-2086.31 357.319,-2086.31"/>
<text text-anchor="middle" x="586.517" y="-2360.51" font-family="Times,serif" font-size="11.00" fill="gray">Synchronization</text>
</g>
<g id="clust5" class="cluster"><title>cluster_\Contentful\Delivery\Console</title>
<path fill="none" stroke="gray" d="M687.498,-1926.31C687.498,-1926.31 856.721,-1926.31 856.721,-1926.31 862.721,-1926.31 868.721,-1932.31 868.721,-1938.31 868.721,-1938.31 868.721,-2066.31 868.721,-2066.31 868.721,-2072.31 862.721,-2078.31 856.721,-2078.31 856.721,-2078.31 687.498,-2078.31 687.498,-2078.31 681.498,-2078.31 675.498,-2072.31 675.498,-2066.31 675.498,-2066.31 675.498,-1938.31 675.498,-1938.31 675.498,-1932.31 681.498,-1926.31 687.498,-1926.31"/>
<text text-anchor="middle" x="772.109" y="-2065.51" font-family="Times,serif" font-size="11.00" fill="gray">Console</text>
</g>
<g id="clust6" class="cluster"><title>cluster_\Contentful\Delivery\Console\Command</title>
<path fill="none" stroke="gray" d="M695.498,-1980.31C695.498,-1980.31 848.721,-1980.31 848.721,-1980.31 854.721,-1980.31 860.721,-1986.31 860.721,-1992.31 860.721,-1992.31 860.721,-2039.31 860.721,-2039.31 860.721,-2045.31 854.721,-2051.31 848.721,-2051.31 848.721,-2051.31 695.498,-2051.31 695.498,-2051.31 689.498,-2051.31 683.498,-2045.31 683.498,-2039.31 683.498,-2039.31 683.498,-1992.31 683.498,-1992.31 683.498,-1986.31 689.498,-1980.31 695.498,-1980.31"/>
<text text-anchor="middle" x="772.109" y="-2038.51" font-family="Times,serif" font-size="11.00" fill="gray">Command</text>
</g>
<g id="clust7" class="cluster"><title>cluster_\Contentful\Delivery\Tool</title>
<path fill="none" stroke="gray" d="M721.902,-1847.31C721.902,-1847.31 822.317,-1847.31 822.317,-1847.31 828.317,-1847.31 834.317,-1853.31 834.317,-1859.31 834.317,-1859.31 834.317,-1906.31 834.317,-1906.31 834.317,-1912.31 828.317,-1918.31 822.317,-1918.31 822.317,-1918.31 721.902,-1918.31 721.902,-1918.31 715.902,-1918.31 709.902,-1912.31 709.902,-1906.31 709.902,-1906.31 709.902,-1859.31 709.902,-1859.31 709.902,-1853.31 715.902,-1847.31 721.902,-1847.31"/>
<text text-anchor="middle" x="772.109" y="-1905.51" font-family="Times,serif" font-size="11.00" fill="gray">Tool</text>
</g>
<g id="clust8" class="cluster"><title>cluster_\Contentful\Log</title>
<path fill="none" stroke="gray" d="M357.319,-698.311C357.319,-698.311 819.016,-698.311 819.016,-698.311 825.016,-698.311 831.016,-704.311 831.016,-710.311 831.016,-710.311 831.016,-973.311 831.016,-973.311 831.016,-979.311 825.016,-985.311 819.016,-985.311 819.016,-985.311 357.319,-985.311 357.319,-985.311 351.319,-985.311 345.319,-979.311 345.319,-973.311 345.319,-973.311 345.319,-710.311 345.319,-710.311 345.319,-704.311 351.319,-698.311 357.319,-698.311"/>
<text text-anchor="middle" x="588.168" y="-972.511" font-family="Times,serif" font-size="11.00" fill="gray">Log</text>
</g>
<!-- \\Contentful\\Delivery\\Synchronization\\Query -->
<g id="node1" class="node"><title>\\Contentful\\Delivery\\Synchronization\\Query</title>
<polygon fill="none" stroke="black" points="799.109,-2346.31 745.109,-2346.31 745.109,-2310.31 799.109,-2310.31 799.109,-2346.31"/>
<text text-anchor="middle" x="772.109" y="-2325.01" font-family="Courier,monospace" font-size="11.00">Query</text>
</g>
<!-- \\Contentful\\Delivery\\Synchronization\\Result -->
<g id="node2" class="node"><title>\\Contentful\\Delivery\\Synchronization\\Result</title>
<polygon fill="none" stroke="black" points="799.717,-2292.31 744.501,-2292.31 744.501,-2256.31 799.717,-2256.31 799.717,-2292.31"/>
<text text-anchor="middle" x="772.109" y="-2271.01" font-family="Courier,monospace" font-size="11.00">Result</text>
</g>
<!-- \\Contentful\\Delivery\\Synchronization\\DeletedResource -->
<g id="node3" class="node"><title>\\Contentful\\Delivery\\Synchronization\\DeletedResource</title>
<polygon fill="none" stroke="black" points="468.343,-2130.31 353.311,-2130.31 353.311,-2094.31 468.343,-2094.31 468.343,-2130.31"/>
<text text-anchor="start" x="377.822" y="-2114.51" font-family="Courier,monospace" font-size="11.00">«abstract»</text>
<text text-anchor="start" x="361.319" y="-2103.51" font-family="Courier,monospace" font-size="11.00">DeletedResource</text>
</g>
<!-- \\JsonSerializable -->
<g id="node41" class="node"><title>\\JsonSerializable</title>
<ellipse fill="none" stroke="black" cx="70.0291" cy="-348.311" rx="70.0582" ry="18"/>
<text text-anchor="middle" x="70.0291" y="-344.111" font-family="Times,serif" font-size="14.00" fill="gray">\JsonSerializable</text>
</g>
<!-- \\Contentful\\Delivery\\Synchronization\\DeletedResource&#45;&gt;\\JsonSerializable -->
<g id="edge13" class="edge"><title>\\Contentful\\Delivery\\Synchronization\\DeletedResource&#45;&gt;\\JsonSerializable</title>
<path fill="none" stroke="black" stroke-dasharray="1,5" d="M352.942,-2123.46C308.202,-2128.62 247.665,-2127 212.058,-2090.31 87.4403,-1961.9 72.7368,-590.974 71.1961,-376.471"/>
<polygon fill="none" stroke="black" points="74.6952,-376.319 71.1271,-366.344 67.6954,-376.367 74.6952,-376.319"/>
</g>
<!-- \\Contentful\\Delivery\\Synchronization\\Manager -->
<g id="node4" class="node"><title>\\Contentful\\Delivery\\Synchronization\\Manager</title>
<polygon fill="none" stroke="black" points="803.317,-2238.31 740.901,-2238.31 740.901,-2202.31 803.317,-2202.31 803.317,-2238.31"/>
<text text-anchor="middle" x="772.109" y="-2217.01" font-family="Courier,monospace" font-size="11.00">Manager</text>
</g>
<!-- \\Contentful\\Delivery\\Synchronization\\DeletedEntry -->
<g id="node5" class="node"><title>\\Contentful\\Delivery\\Synchronization\\DeletedEntry</title>
<polygon fill="none" stroke="black" points="819.822,-2184.31 724.396,-2184.31 724.396,-2148.31 819.822,-2148.31 819.822,-2184.31"/>
<text text-anchor="middle" x="772.109" y="-2163.01" font-family="Courier,monospace" font-size="11.00">DeletedEntry</text>
</g>
<!-- \\Contentful\\Delivery\\Synchronization\\DeletedEntry&#45;&gt;\\Contentful\\Delivery\\Synchronization\\DeletedResource -->
<g id="edge17" class="edge"><title>\\Contentful\\Delivery\\Synchronization\\DeletedEntry&#45;&gt;\\Contentful\\Delivery\\Synchronization\\DeletedResource</title>
<path fill="none" stroke="black" d="M724.296,-2155.94C692.152,-2149.1 648.441,-2140.31 609.596,-2134.31 566.188,-2127.61 517.117,-2122.14 478.714,-2118.33"/>
<polygon fill="none" stroke="black" points="478.979,-2114.84 468.686,-2117.35 478.298,-2121.8 478.979,-2114.84"/>
</g>
<!-- \\Contentful\\Delivery\\Synchronization\\DeletedAsset -->
<g id="node6" class="node"><title>\\Contentful\\Delivery\\Synchronization\\DeletedAsset</title>
<polygon fill="none" stroke="black" points="819.822,-2130.31 724.396,-2130.31 724.396,-2094.31 819.822,-2094.31 819.822,-2130.31"/>
<text text-anchor="middle" x="772.109" y="-2109.01" font-family="Courier,monospace" font-size="11.00">DeletedAsset</text>
</g>
<!-- \\Contentful\\Delivery\\Synchronization\\DeletedAsset&#45;&gt;\\Contentful\\Delivery\\Synchronization\\DeletedResource -->
<g id="edge25" class="edge"><title>\\Contentful\\Delivery\\Synchronization\\DeletedAsset&#45;&gt;\\Contentful\\Delivery\\Synchronization\\DeletedResource</title>
<path fill="none" stroke="black" d="M724.139,-2112.31C661.502,-2112.31 550.243,-2112.31 478.818,-2112.31"/>
<polygon fill="none" stroke="black" points="478.58,-2108.81 468.58,-2112.31 478.58,-2115.81 478.58,-2108.81"/>
</g>
<!-- \\Contentful\\Delivery\\Console\\Command\\GenerateClassesCommand -->
<g id="node7" class="node"><title>\\Contentful\\Delivery\\Console\\Command\\GenerateClassesCommand</title>
<polygon fill="none" stroke="black" points="852.833,-2024.31 691.386,-2024.31 691.386,-1988.31 852.833,-1988.31 852.833,-2024.31"/>
<text text-anchor="middle" x="772.109" y="-2003.01" font-family="Courier,monospace" font-size="11.00">GenerateClassesCommand</text>
</g>
<!-- \\Symfony\\Component\\Console\\Command\\Command -->
<g id="node47" class="node"><title>\\Symfony\\Component\\Console\\Command\\Command</title>
<ellipse fill="none" stroke="black" cx="410.827" cy="-448.311" rx="198.538" ry="18"/>
<text text-anchor="middle" x="410.827" y="-444.111" font-family="Times,serif" font-size="14.00" fill="gray">\Symfony\Component\Console\Command\Command</text>
</g>
<!-- \\Contentful\\Delivery\\Console\\Command\\GenerateClassesCommand&#45;&gt;\\Symfony\\Component\\Console\\Command\\Command -->
<g id="edge19" class="edge"><title>\\Contentful\\Delivery\\Console\\Command\\GenerateClassesCommand&#45;&gt;\\Symfony\\Component\\Console\\Command\\Command</title>
<path fill="none" stroke="black" d="M691.121,-1996.9C685.22,-1993.66 679.875,-1989.53 675.498,-1984.31 583.277,-1874.34 660.703,-828.423 609.596,-694.311 573.607,-599.873 486.83,-513.83 441.12,-473.1"/>
<polygon fill="none" stroke="black" points="443.17,-470.241 433.351,-466.262 438.545,-475.496 443.17,-470.241"/>
</g>
<!-- \\Contentful\\Delivery\\Console\\Application -->
<g id="node8" class="node"><title>\\Contentful\\Delivery\\Console\\Application</title>
<polygon fill="none" stroke="black" points="816.222,-1970.31 727.997,-1970.31 727.997,-1934.31 816.222,-1934.31 816.222,-1970.31"/>
<text text-anchor="middle" x="772.109" y="-1949.01" font-family="Courier,monospace" font-size="11.00">Application</text>
</g>
<!-- \\Symfony\\Component\\Console\\Application -->
<g id="node46" class="node"><title>\\Symfony\\Component\\Console\\Application</title>
<ellipse fill="none" stroke="black" cx="410.827" cy="-394.311" rx="164.242" ry="18"/>
<text text-anchor="middle" x="410.827" y="-390.111" font-family="Times,serif" font-size="14.00" fill="gray">\Symfony\Component\Console\Application</text>
</g>
<!-- \\Contentful\\Delivery\\Console\\Application&#45;&gt;\\Symfony\\Component\\Console\\Application -->
<g id="edge11" class="edge"><title>\\Contentful\\Delivery\\Console\\Application&#45;&gt;\\Symfony\\Component\\Console\\Application</title>
<path fill="none" stroke="black" d="M727.635,-1949.56C708.58,-1945.97 687.796,-1938.31 675.498,-1922.31 573.764,-1789.95 722.098,-544.647 609.596,-421.311 601.997,-412.98 593.135,-406.331 583.453,-401.071"/>
<polygon fill="none" stroke="black" points="584.865,-397.865 574.344,-396.622 581.793,-404.155 584.865,-397.865"/>
</g>
<!-- \\Contentful\\Delivery\\Tool\\ClassGenerator -->
<g id="node9" class="node"><title>\\Contentful\\Delivery\\Tool\\ClassGenerator</title>
<polygon fill="none" stroke="black" points="826.525,-1891.31 717.693,-1891.31 717.693,-1855.31 826.525,-1855.31 826.525,-1891.31"/>
<text text-anchor="middle" x="772.109" y="-1870.01" font-family="Courier,monospace" font-size="11.00">ClassGenerator</text>
</g>
<!-- \\Contentful\\Delivery\\Query -->
<g id="node10" class="node"><title>\\Contentful\\Delivery\\Query</title>
<polygon fill="none" stroke="black" points="799.109,-1837.31 745.109,-1837.31 745.109,-1801.31 799.109,-1801.31 799.109,-1837.31"/>
<text text-anchor="middle" x="772.109" y="-1816.01" font-family="Courier,monospace" font-size="11.00">Query</text>
</g>
<!-- \\Contentful\\Query -->
<g id="node36" class="node"><title>\\Contentful\\Query</title>
<polygon fill="none" stroke="black" points="437.827,-2444.31 383.827,-2444.31 383.827,-2408.31 437.827,-2408.31 437.827,-2444.31"/>
<text text-anchor="middle" x="410.827" y="-2423.01" font-family="Courier,monospace" font-size="11.00">Query</text>
</g>
<!-- \\Contentful\\Delivery\\Query&#45;&gt;\\Contentful\\Query -->
<g id="edge1" class="edge"><title>\\Contentful\\Delivery\\Query&#45;&gt;\\Contentful\\Query</title>
<path fill="none" stroke="black" d="M744.687,-1818.34C722.801,-1819.08 692.612,-1823.95 675.498,-1843.31 517.13,-2022.49 768.238,-2198.38 609.596,-2377.31 569.079,-2423.01 493.254,-2429.36 448.179,-2428.64"/>
<polygon fill="none" stroke="black" points="448.06,-2425.14 437.965,-2428.35 447.861,-2432.14 448.06,-2425.14"/>
</g>
<!-- \\Contentful\\Delivery\\ResourceBuilder -->
<g id="node11" class="node"><title>\\Contentful\\Delivery\\ResourceBuilder</title>
<polygon fill="none" stroke="black" points="829.625,-1783.31 714.593,-1783.31 714.593,-1747.31 829.625,-1747.31 829.625,-1783.31"/>
<text text-anchor="middle" x="772.109" y="-1762.01" font-family="Courier,monospace" font-size="11.00">ResourceBuilder</text>
</g>
<!-- \\Contentful\\Delivery\\ContentTypeField -->
<g id="node12" class="node"><title>\\Contentful\\Delivery\\ContentTypeField</title>
<polygon fill="none" stroke="black" points="832.727,-1567.31 711.492,-1567.31 711.492,-1531.31 832.727,-1531.31 832.727,-1567.31"/>
<text text-anchor="middle" x="772.109" y="-1546.01" font-family="Courier,monospace" font-size="11.00">ContentTypeField</text>
</g>
<!-- \\Contentful\\Delivery\\ContentTypeField&#45;&gt;\\JsonSerializable -->
<g id="edge2" class="edge"><title>\\Contentful\\Delivery\\ContentTypeField&#45;&gt;\\JsonSerializable</title>
<path fill="none" stroke="black" stroke-dasharray="1,5" d="M711.408,-1544.28C697.659,-1540.24 684.458,-1533.48 675.498,-1522.31 514.589,-1321.81 787.823,-552.588 609.596,-367.311 548.379,-303.673 484.405,-398.607 411.827,-348.311"/>
</g>
<!-- \\Contentful\\Delivery\\SpaceMismatchException -->
<g id="node13" class="node"><title>\\Contentful\\Delivery\\SpaceMismatchException</title>
<polygon fill="none" stroke="black" points="852.833,-1405.31 691.386,-1405.31 691.386,-1369.31 852.833,-1369.31 852.833,-1405.31"/>
<text text-anchor="middle" x="772.109" y="-1384.01" font-family="Courier,monospace" font-size="11.00">SpaceMismatchException</text>
</g>
<!-- \\RuntimeException -->
<g id="node42" class="node"><title>\\RuntimeException</title>
<ellipse fill="none" stroke="black" cx="410.827" cy="-302.311" rx="78.7539" ry="18"/>
<text text-anchor="middle" x="410.827" y="-298.111" font-family="Times,serif" font-size="14.00" fill="gray">\RuntimeException</text>
</g>
<!-- \\Contentful\\Delivery\\SpaceMismatchException&#45;&gt;\\RuntimeException -->
<g id="edge3" class="edge"><title>\\Contentful\\Delivery\\SpaceMismatchException&#45;&gt;\\RuntimeException</title>
<path fill="none" stroke="black" d="M691.477,-1373.8C685.418,-1370.24 679.943,-1365.81 675.498,-1360.31 531.863,-1182.64 763.188,-503.45 609.596,-334.311 580.218,-301.96 532.04,-293.656 490.592,-293.587"/>
<polygon fill="none" stroke="black" points="490.441,-290.089 480.491,-293.729 490.54,-297.088 490.441,-290.089"/>
</g>
<!-- \\Contentful\\Delivery\\LocalizedResource -->
<g id="node14" class="node"><title>\\Contentful\\Delivery\\LocalizedResource</title>
<polygon fill="none" stroke="black" points="475.045,-1479.31 346.609,-1479.31 346.609,-1443.31 475.045,-1443.31 475.045,-1479.31"/>
<text text-anchor="start" x="377.822" y="-1463.51" font-family="Courier,monospace" font-size="11.00">«abstract»</text>
<text text-anchor="start" x="354.718" y="-1452.51" font-family="Courier,monospace" font-size="11.00">LocalizedResource</text>
</g>
<!-- \\Contentful\\Delivery\\ContentType -->
<g id="node15" class="node"><title>\\Contentful\\Delivery\\ContentType</title>
<polygon fill="none" stroke="black" points="816.222,-1297.31 727.997,-1297.31 727.997,-1261.31 816.222,-1261.31 816.222,-1297.31"/>
<text text-anchor="middle" x="772.109" y="-1276.01" font-family="Courier,monospace" font-size="11.00">ContentType</text>
</g>
<!-- \\Contentful\\Delivery\\ContentType&#45;&gt;\\JsonSerializable -->
<g id="edge8" class="edge"><title>\\Contentful\\Delivery\\ContentType&#45;&gt;\\JsonSerializable</title>
<path fill="none" stroke="black" stroke-dasharray="1,5" d="M727.957,-1277.82C708.973,-1274.8 688.155,-1267.81 675.498,-1252.31 550.735,-1099.58 747.542,-508.248 609.596,-367.311 547.83,-304.206 484.405,-398.607 411.827,-348.311"/>
</g>
<!-- \\Contentful\\Delivery\\DynamicEntry -->
<g id="node16" class="node"><title>\\Contentful\\Delivery\\DynamicEntry</title>
<polygon fill="none" stroke="black" points="819.822,-1675.31 724.396,-1675.31 724.396,-1639.31 819.822,-1639.31 819.822,-1675.31"/>
<text text-anchor="middle" x="772.109" y="-1654.01" font-family="Courier,monospace" font-size="11.00">DynamicEntry</text>
</g>
<!-- \\Contentful\\Delivery\\DynamicEntry&#45;&gt;\\Contentful\\Delivery\\LocalizedResource -->
<g id="edge9" class="edge"><title>\\Contentful\\Delivery\\DynamicEntry&#45;&gt;\\Contentful\\Delivery\\LocalizedResource</title>
<path fill="none" stroke="black" d="M724.141,-1648.72C708.065,-1644.59 690.392,-1638.66 675.498,-1630.31 640.685,-1610.79 642.002,-1592.61 609.596,-1569.31 561.756,-1534.92 501.755,-1503.61 460.46,-1483.67"/>
<polygon fill="none" stroke="black" points="461.956,-1480.5 451.425,-1479.34 458.932,-1486.81 461.956,-1480.5"/>
</g>
<!-- \\Contentful\\Delivery\\EntryInterface -->
<g id="node27" class="node"><title>\\Contentful\\Delivery\\EntryInterface</title>
<polygon fill="none" stroke="black" points="465.243,-1614.31 356.411,-1614.31 356.411,-1578.31 465.243,-1578.31 465.243,-1614.31"/>
<text text-anchor="middle" x="410.827" y="-1593.01" font-family="Courier,monospace" font-size="11.00">EntryInterface</text>
</g>
<!-- \\Contentful\\Delivery\\DynamicEntry&#45;&gt;\\Contentful\\Delivery\\EntryInterface -->
<g id="edge10" class="edge"><title>\\Contentful\\Delivery\\DynamicEntry&#45;&gt;\\Contentful\\Delivery\\EntryInterface</title>
<path fill="none" stroke="black" stroke-dasharray="1,5" d="M724.139,-1649.34C660.505,-1638.53 546.689,-1619.21 475.438,-1607.11"/>
<polygon fill="none" stroke="black" points="475.69,-1603.6 465.245,-1605.38 474.518,-1610.51 475.69,-1603.6"/>
</g>
<!-- \\Contentful\\Delivery\\InstanceCache -->
<g id="node17" class="node"><title>\\Contentful\\Delivery\\InstanceCache</title>
<polygon fill="none" stroke="black" points="822.923,-1513.31 721.295,-1513.31 721.295,-1477.31 822.923,-1477.31 822.923,-1513.31"/>
<text text-anchor="middle" x="772.109" y="-1492.01" font-family="Courier,monospace" font-size="11.00">InstanceCache</text>
</g>
<!-- \\Contentful\\Delivery\\File -->
<g id="node18" class="node"><title>\\Contentful\\Delivery\\File</title>
<polygon fill="none" stroke="black" points="437.827,-1708.31 383.827,-1708.31 383.827,-1672.31 437.827,-1672.31 437.827,-1708.31"/>
<text text-anchor="middle" x="410.827" y="-1687.01" font-family="Courier,monospace" font-size="11.00">File</text>
</g>
<!-- \\Contentful\\Delivery\\File&#45;&gt;\\JsonSerializable -->
<g id="edge12" class="edge"><title>\\Contentful\\Delivery\\File&#45;&gt;\\JsonSerializable</title>
<path fill="none" stroke="black" stroke-dasharray="1,5" d="M383.727,-1689.85C340.482,-1687.54 254.534,-1676.14 212.058,-1623.31 131.075,-1522.58 80.9971,-556.13 72.3656,-376.849"/>
<polygon fill="none" stroke="black" points="75.8511,-376.461 71.878,-366.639 68.8591,-376.794 75.8511,-376.461"/>
</g>
<!-- \\Contentful\\Delivery\\SystemProperties -->
<g id="node19" class="node"><title>\\Contentful\\Delivery\\SystemProperties</title>
<polygon fill="none" stroke="black" points="832.727,-1189.31 711.492,-1189.31 711.492,-1153.31 832.727,-1153.31 832.727,-1189.31"/>
<text text-anchor="middle" x="772.109" y="-1168.01" font-family="Courier,monospace" font-size="11.00">SystemProperties</text>
</g>
<!-- \\Contentful\\Delivery\\SystemProperties&#45;&gt;\\JsonSerializable -->
<g id="edge15" class="edge"><title>\\Contentful\\Delivery\\SystemProperties&#45;&gt;\\JsonSerializable</title>
<path fill="none" stroke="black" stroke-dasharray="1,5" d="M711.121,-1165.96C697.547,-1161.91 684.502,-1155.22 675.498,-1144.31 565.182,-1010.67 731.442,-490.525 609.596,-367.311 547.506,-304.525 484.405,-398.607 411.827,-348.311"/>
</g>
<!-- \\Contentful\\Delivery\\Client -->
<g id="node20" class="node"><title>\\Contentful\\Delivery\\Client</title>
<polygon fill="none" stroke="black" points="799.717,-1621.31 744.501,-1621.31 744.501,-1585.31 799.717,-1585.31 799.717,-1621.31"/>
<text text-anchor="middle" x="772.109" y="-1600.01" font-family="Courier,monospace" font-size="11.00">Client</text>
</g>
<!-- \\Contentful\\Client -->
<g id="node40" class="node"><title>\\Contentful\\Client</title>
<polygon fill="none" stroke="black" points="451.838,-1029.31 369.816,-1029.31 369.816,-993.311 451.838,-993.311 451.838,-1029.31"/>
<text text-anchor="start" x="377.822" y="-1013.51" font-family="Courier,monospace" font-size="11.00">«abstract»</text>
<text text-anchor="start" x="391.024" y="-1002.51" font-family="Courier,monospace" font-size="11.00">Client</text>
</g>
<!-- \\Contentful\\Delivery\\Client&#45;&gt;\\Contentful\\Client -->
<g id="edge16" class="edge"><title>\\Contentful\\Delivery\\Client&#45;&gt;\\Contentful\\Client</title>
<path fill="none" stroke="black" d="M744.163,-1603.36C722.26,-1601.85 692.326,-1595.96 675.498,-1576.31 517.371,-1391.66 782.353,-1204.35 609.596,-1033.31 571.56,-995.654 507.127,-995.519 462.178,-1001.28"/>
<polygon fill="none" stroke="black" points="461.459,-997.849 452.051,-1002.72 462.444,-1004.78 461.459,-997.849"/>
</g>
<!-- \\Contentful\\Delivery\\ImageOptions -->
<g id="node21" class="node"><title>\\Contentful\\Delivery\\ImageOptions</title>
<polygon fill="none" stroke="black" points="819.822,-1351.31 724.396,-1351.31 724.396,-1315.31 819.822,-1315.31 819.822,-1351.31"/>
<text text-anchor="middle" x="772.109" y="-1330.01" font-family="Courier,monospace" font-size="11.00">ImageOptions</text>
</g>
<!-- \\Contentful\\Delivery\\ImageFile -->
<g id="node22" class="node"><title>\\Contentful\\Delivery\\ImageFile</title>
<polygon fill="none" stroke="black" points="810.02,-1729.31 734.199,-1729.31 734.199,-1693.31 810.02,-1693.31 810.02,-1729.31"/>
<text text-anchor="middle" x="772.109" y="-1708.01" font-family="Courier,monospace" font-size="11.00">ImageFile</text>
</g>
<!-- \\Contentful\\Delivery\\ImageFile&#45;&gt;\\Contentful\\Delivery\\File -->
<g id="edge18" class="edge"><title>\\Contentful\\Delivery\\ImageFile&#45;&gt;\\Contentful\\Delivery\\File</title>
<path fill="none" stroke="black" d="M734.348,-1709.16C665.424,-1705.13 517.531,-1696.49 448.599,-1692.46"/>
<polygon fill="none" stroke="black" points="448.425,-1688.94 438.238,-1691.85 448.017,-1695.93 448.425,-1688.94"/>
</g>
<!-- \\Contentful\\Delivery\\Link -->
<g id="node23" class="node"><title>\\Contentful\\Delivery\\Link</title>
<polygon fill="none" stroke="black" points="799.109,-1243.31 745.109,-1243.31 745.109,-1207.31 799.109,-1207.31 799.109,-1243.31"/>
<text text-anchor="middle" x="772.109" y="-1222.01" font-family="Courier,monospace" font-size="11.00">Link</text>
</g>
<!-- \\Contentful\\Delivery\\Locale -->
<g id="node24" class="node"><title>\\Contentful\\Delivery\\Locale</title>
<polygon fill="none" stroke="black" points="799.717,-1135.31 744.501,-1135.31 744.501,-1099.31 799.717,-1099.31 799.717,-1135.31"/>
<text text-anchor="middle" x="772.109" y="-1114.01" font-family="Courier,monospace" font-size="11.00">Locale</text>
</g>
<!-- \\Contentful\\Delivery\\Locale&#45;&gt;\\JsonSerializable -->
<g id="edge20" class="edge"><title>\\Contentful\\Delivery\\Locale&#45;&gt;\\JsonSerializable</title>
<path fill="none" stroke="black" stroke-dasharray="1,5" d="M744.45,-1117.52C722.415,-1116.14 692.141,-1110.34 675.498,-1090.31 572.401,-966.217 723.397,-481.668 609.596,-367.311 547.309,-304.72 484.405,-398.607 411.827,-348.311"/>
<path fill="none" stroke="black" stroke-dasharray="1,5" d="M409.827,-348.311C388.945,-333.84 241.933,-338.902 148.551,-343.723"/>
<polygon fill="none" stroke="black" points="148.087,-340.242 138.284,-344.263 148.454,-347.232 148.087,-340.242"/>
</g>
<!-- \\Contentful\\Delivery\\Space -->
<g id="node25" class="node"><title>\\Contentful\\Delivery\\Space</title>
<polygon fill="none" stroke="black" points="799.109,-1081.31 745.109,-1081.31 745.109,-1045.31 799.109,-1045.31 799.109,-1081.31"/>
<text text-anchor="middle" x="772.109" y="-1060.01" font-family="Courier,monospace" font-size="11.00">Space</text>
</g>
<!-- \\Contentful\\Delivery\\Space&#45;&gt;\\JsonSerializable -->
<g id="edge21" class="edge"><title>\\Contentful\\Delivery\\Space&#45;&gt;\\JsonSerializable</title>
<path fill="none" stroke="black" stroke-dasharray="1,5" d="M745.078,-1050.92C722.494,-1038.67 691.054,-1017.65 675.498,-989.311 598.814,-849.636 727.331,-382.68 609.596,-275.311 544.321,-215.784 297.892,-254.413 212.058,-275.311 172.175,-285.021 130.981,-308.129 103.491,-325.766"/>
<polygon fill="none" stroke="black" points="101.519,-322.873 95.0658,-331.276 105.351,-328.731 101.519,-322.873"/>
</g>
<!-- \\Contentful\\Delivery\\Asset -->
<g id="node26" class="node"><title>\\Contentful\\Delivery\\Asset</title>
<polygon fill="none" stroke="black" points="799.109,-1459.31 745.109,-1459.31 745.109,-1423.31 799.109,-1423.31 799.109,-1459.31"/>
<text text-anchor="middle" x="772.109" y="-1438.01" font-family="Courier,monospace" font-size="11.00">Asset</text>
</g>
<!-- \\Contentful\\Delivery\\Asset&#45;&gt;\\Contentful\\Delivery\\LocalizedResource -->
<g id="edge23" class="edge"><title>\\Contentful\\Delivery\\Asset&#45;&gt;\\Contentful\\Delivery\\LocalizedResource</title>
<path fill="none" stroke="black" d="M744.981,-1442.77C691.092,-1445.77 565.911,-1452.73 485.271,-1457.22"/>
<polygon fill="none" stroke="black" points="484.968,-1453.73 475.178,-1457.78 485.357,-1460.72 484.968,-1453.73"/>
</g>
<!-- \\Contentful\\Delivery\\Asset&#45;&gt;\\JsonSerializable -->
<g id="edge24" class="edge"><title>\\Contentful\\Delivery\\Asset&#45;&gt;\\JsonSerializable</title>
<path fill="none" stroke="black" stroke-dasharray="1,5" d="M744.746,-1441.66C722.586,-1440.4 691.967,-1434.71 675.498,-1414.31 529.051,-1232.92 771.706,-534.848 609.596,-367.311 548.193,-303.853 484.405,-398.607 411.827,-348.311"/>
</g>
<!-- \\Contentful\\Delivery\\EntryInterface&#45;&gt;\\JsonSerializable -->
<g id="edge30" class="edge"><title>\\Contentful\\Delivery\\EntryInterface&#45;&gt;\\JsonSerializable</title>
<path fill="none" stroke="black" d="M356.337,-1582.12C310.196,-1566.91 245.817,-1537.97 212.058,-1488.31 83.5494,-1299.26 72.1057,-534.611 71.1174,-376.863"/>
<polygon fill="none" stroke="black" points="74.6159,-376.552 71.0628,-366.57 67.616,-376.589 74.6159,-376.552"/>
</g>
<!-- \\Contentful\\Log\\ArrayLogger -->
<g id="node28" class="node"><title>\\Contentful\\Log\\ArrayLogger</title>
<polygon fill="none" stroke="black" points="816.222,-958.311 727.997,-958.311 727.997,-922.311 816.222,-922.311 816.222,-958.311"/>
<text text-anchor="middle" x="772.109" y="-937.011" font-family="Courier,monospace" font-size="11.00">ArrayLogger</text>
</g>
<!-- \\Contentful\\Log\\LoggerInterface -->
<g id="node33" class="node"><title>\\Contentful\\Log\\LoggerInterface</title>
<polygon fill="none" stroke="black" points="468.343,-904.311 353.311,-904.311 353.311,-868.311 468.343,-868.311 468.343,-904.311"/>
<text text-anchor="middle" x="410.827" y="-883.011" font-family="Courier,monospace" font-size="11.00">LoggerInterface</text>
</g>
<!-- \\Contentful\\Log\\ArrayLogger&#45;&gt;\\Contentful\\Log\\LoggerInterface -->
<g id="edge26" class="edge"><title>\\Contentful\\Log\\ArrayLogger&#45;&gt;\\Contentful\\Log\\LoggerInterface</title>
<path fill="none" stroke="black" stroke-dasharray="1,5" d="M727.756,-930.684C695.338,-923.738 649.853,-914.527 609.596,-908.311 566.188,-901.609 517.117,-896.138 478.714,-892.328"/>
<polygon fill="none" stroke="black" points="478.979,-888.837 468.686,-891.346 478.298,-895.804 478.979,-888.837"/>
</g>
<!-- \\Contentful\\Log\\LogEntry -->
<g id="node29" class="node"><title>\\Contentful\\Log\\LogEntry</title>
<polygon fill="none" stroke="black" points="806.418,-904.311 737.8,-904.311 737.8,-868.311 806.418,-868.311 806.418,-904.311"/>
<text text-anchor="middle" x="772.109" y="-883.011" font-family="Courier,monospace" font-size="11.00">LogEntry</text>
</g>
<!-- \\Contentful\\Log\\NullLogger -->
<g id="node30" class="node"><title>\\Contentful\\Log\\NullLogger</title>
<polygon fill="none" stroke="black" points="813.12,-850.311 731.099,-850.311 731.099,-814.311 813.12,-814.311 813.12,-850.311"/>
<text text-anchor="middle" x="772.109" y="-829.011" font-family="Courier,monospace" font-size="11.00">NullLogger</text>
</g>
<!-- \\Contentful\\Log\\NullLogger&#45;&gt;\\Contentful\\Log\\LoggerInterface -->
<g id="edge27" class="edge"><title>\\Contentful\\Log\\NullLogger&#45;&gt;\\Contentful\\Log\\LoggerInterface</title>
<path fill="none" stroke="black" stroke-dasharray="1,5" d="M730.941,-838.348C669.818,-847.535 552.757,-865.129 478.675,-876.264"/>
<polygon fill="none" stroke="black" points="477.886,-872.843 468.517,-877.791 478.927,-879.765 477.886,-872.843"/>
</g>
<!-- \\Contentful\\Log\\NullTimer -->
<g id="node31" class="node"><title>\\Contentful\\Log\\NullTimer</title>
<polygon fill="none" stroke="black" points="810.02,-796.311 734.199,-796.311 734.199,-760.311 810.02,-760.311 810.02,-796.311"/>
<text text-anchor="middle" x="772.109" y="-775.011" font-family="Courier,monospace" font-size="11.00">NullTimer</text>
</g>
<!-- \\Contentful\\Log\\TimerInterface -->
<g id="node34" class="node"><title>\\Contentful\\Log\\TimerInterface</title>
<polygon fill="none" stroke="black" points="465.243,-769.311 356.411,-769.311 356.411,-733.311 465.243,-733.311 465.243,-769.311"/>
<text text-anchor="middle" x="410.827" y="-748.011" font-family="Courier,monospace" font-size="11.00">TimerInterface</text>
</g>
<!-- \\Contentful\\Log\\NullTimer&#45;&gt;\\Contentful\\Log\\TimerInterface -->
<g id="edge28" class="edge"><title>\\Contentful\\Log\\NullTimer&#45;&gt;\\Contentful\\Log\\TimerInterface</title>
<path fill="none" stroke="black" stroke-dasharray="1,5" d="M734.348,-775.548C673.369,-770.966 550.575,-761.738 475.34,-756.084"/>
<polygon fill="none" stroke="black" points="475.285,-752.57 465.051,-755.311 474.761,-759.55 475.285,-752.57"/>
</g>
<!-- \\Contentful\\Log\\StandardTimer -->
<g id="node32" class="node"><title>\\Contentful\\Log\\StandardTimer</title>
<polygon fill="none" stroke="black" points="822.923,-742.311 721.295,-742.311 721.295,-706.311 822.923,-706.311 822.923,-742.311"/>
<text text-anchor="middle" x="772.109" y="-721.011" font-family="Courier,monospace" font-size="11.00">StandardTimer</text>
</g>
<!-- \\Contentful\\Log\\StandardTimer&#45;&gt;\\Contentful\\Log\\TimerInterface -->
<g id="edge29" class="edge"><title>\\Contentful\\Log\\StandardTimer&#45;&gt;\\Contentful\\Log\\TimerInterface</title>
<path fill="none" stroke="black" stroke-dasharray="1,5" d="M721.153,-728.065C656.923,-732.892 545.332,-741.278 475.197,-746.549"/>
<polygon fill="none" stroke="black" points="474.87,-743.063 465.161,-747.303 475.395,-750.044 474.87,-743.063"/>
</g>
<!-- \\Contentful\\ResourceArray -->
<g id="node35" class="node"><title>\\Contentful\\ResourceArray</title>
<polygon fill="none" stroke="black" points="822.923,-634.311 721.295,-634.311 721.295,-598.311 822.923,-598.311 822.923,-634.311"/>
<text text-anchor="middle" x="772.109" y="-613.011" font-family="Courier,monospace" font-size="11.00">ResourceArray</text>
</g>
<!-- \\Contentful\\ResourceArray&#45;&gt;\\JsonSerializable -->
<g id="edge7" class="edge"><title>\\Contentful\\ResourceArray&#45;&gt;\\JsonSerializable</title>
<path fill="none" stroke="black" stroke-dasharray="1,5" d="M721.02,-613.02C704.273,-609.388 686.971,-602.42 675.498,-589.311 539.479,-433.894 765.648,-264.6 609.596,-129.311 542.846,-71.4428 289.613,-87.0093 212.058,-129.311 136.447,-170.553 95.283,-271.641 79.1605,-320.703"/>
<polygon fill="none" stroke="black" points="75.7903,-319.752 76.0968,-330.342 82.4615,-321.872 75.7903,-319.752"/>
</g>
<!-- \\Countable -->
<g id="node43" class="node"><title>\\Countable</title>
<ellipse fill="none" stroke="black" cx="410.827" cy="-64.3111" rx="48.8273" ry="18"/>
<text text-anchor="middle" x="410.827" y="-60.1111" font-family="Times,serif" font-size="14.00" fill="gray">\Countable</text>
</g>
<!-- \\Contentful\\ResourceArray&#45;&gt;\\Countable -->
<g id="edge4" class="edge"><title>\\Contentful\\ResourceArray&#45;&gt;\\Countable</title>
<path fill="none" stroke="black" stroke-dasharray="1,5" d="M720.952,-613.08C704.198,-609.454 686.909,-602.474 675.498,-589.311 530.695,-422.278 763.743,-254.761 609.596,-96.3111 573.257,-58.9582 511.711,-54.367 466.91,-56.9836"/>
<polygon fill="none" stroke="black" points="466.489,-53.5048 456.766,-57.7142 466.991,-60.4867 466.489,-53.5048"/>
</g>
<!-- \\ArrayAccess -->
<g id="node44" class="node"><title>\\ArrayAccess</title>
<ellipse fill="none" stroke="black" cx="410.827" cy="-210.311" rx="58.465" ry="18"/>
<text text-anchor="middle" x="410.827" y="-206.111" font-family="Times,serif" font-size="14.00" fill="gray">\ArrayAccess</text>
</g>
<!-- \\Contentful\\ResourceArray&#45;&gt;\\ArrayAccess -->
<g id="edge5" class="edge"><title>\\Contentful\\ResourceArray&#45;&gt;\\ArrayAccess</title>
<path fill="none" stroke="black" stroke-dasharray="1,5" d="M720.847,-612.621C704.287,-608.932 687.149,-602.03 675.498,-589.311 569.46,-473.559 722.1,-351.788 609.596,-242.311 574.634,-208.29 518.618,-201.942 475.112,-203.156"/>
<polygon fill="none" stroke="black" points="474.752,-199.668 464.907,-203.584 475.045,-206.662 474.752,-199.668"/>
</g>
<!-- \\IteratorAggregate -->
<g id="node45" class="node"><title>\\IteratorAggregate</title>
<ellipse fill="none" stroke="black" cx="410.827" cy="-156.311" rx="75.3276" ry="18"/>
<text text-anchor="middle" x="410.827" y="-152.111" font-family="Times,serif" font-size="14.00" fill="gray">\IteratorAggregate</text>
</g>
<!-- \\Contentful\\ResourceArray&#45;&gt;\\IteratorAggregate -->
<g id="edge6" class="edge"><title>\\Contentful\\ResourceArray&#45;&gt;\\IteratorAggregate</title>
<path fill="none" stroke="black" stroke-dasharray="1,5" d="M721.153,-612.902C704.42,-609.258 687.092,-602.313 675.498,-589.311 553.829,-452.875 740.48,-310.934 609.596,-183.311 577.621,-152.133 527.72,-145.504 486.044,-146.608"/>
<polygon fill="none" stroke="black" points="485.763,-143.116 475.918,-147.029 486.055,-150.11 485.763,-143.116"/>
</g>
<!-- \\Contentful\\Location -->
<g id="node37" class="node"><title>\\Contentful\\Location</title>
<polygon fill="none" stroke="black" points="806.418,-526.311 737.8,-526.311 737.8,-490.311 806.418,-490.311 806.418,-526.311"/>
<text text-anchor="middle" x="772.109" y="-505.011" font-family="Courier,monospace" font-size="11.00">Location</text>
</g>
<!-- \\Contentful\\Location&#45;&gt;\\JsonSerializable -->
<g id="edge14" class="edge"><title>\\Contentful\\Location&#45;&gt;\\JsonSerializable</title>
<path fill="none" stroke="black" stroke-dasharray="1,5" d="M771.601,-490.042C772.439,-417.465 764.706,-148.098 609.596,-37.3111 537.708,14.0346 286.312,10.549 212.058,-37.3111 112.194,-101.678 82.257,-255.859 73.9643,-319.788"/>
<polygon fill="none" stroke="black" points="70.4624,-319.593 72.7331,-329.942 77.4115,-320.436 70.4624,-319.593"/>
</g>
<!-- \\Contentful\\BearerToken -->
<g id="node38" class="node"><title>\\Contentful\\BearerToken</title>
<polygon fill="none" stroke="black" points="816.222,-580.311 727.997,-580.311 727.997,-544.311 816.222,-544.311 816.222,-580.311"/>
<text text-anchor="middle" x="772.109" y="-559.011" font-family="Courier,monospace" font-size="11.00">BearerToken</text>
</g>
<!-- \\Contentful\\ResourceNotFoundException -->
<g id="node39" class="node"><title>\\Contentful\\ResourceNotFoundException</title>
<polygon fill="none" stroke="black" points="862.636,-688.311 681.582,-688.311 681.582,-652.311 862.636,-652.311 862.636,-688.311"/>
<text text-anchor="middle" x="772.109" y="-667.011" font-family="Courier,monospace" font-size="11.00">ResourceNotFoundException</text>
</g>
<!-- \\Contentful\\ResourceNotFoundException&#45;&gt;\\RuntimeException -->
<g id="edge22" class="edge"><title>\\Contentful\\ResourceNotFoundException&#45;&gt;\\RuntimeException</title>
<path fill="none" stroke="black" d="M686.108,-652.307C682.258,-649.692 678.682,-646.71 675.498,-643.311 579.488,-540.839 711.326,-431.106 609.596,-334.311 579.23,-305.418 533.628,-296.637 493.863,-295.434"/>
<polygon fill="none" stroke="black" points="493.676,-291.931 483.626,-295.284 493.573,-298.93 493.676,-291.931"/>
</g>
</g>
</svg>
